<svg version="1.2" xmlns="http://www.w3.org/2000/svg" viewBox="0 0 169 61" width="169" height="61"><style>tspan{white-space:pre}.a{fill:#f70;stroke:#f70}.b{font-size: 50px;fill: #ff7700;font-weight: 600;font-family: "OpenSans-SemiBold", "Open Sans"}</style><path fill-rule="evenodd" class="a" d="m56.4 1q0.8 0.3 1.4 0.9 0.6 0.6 0.9 1.4 0.3 0.8 0.3 1.7v50.2q0 0.9-0.3 1.7-0.3 0.8-0.9 1.4-0.6 0.6-1.4 0.9-0.8 0.4-1.6 0.4h-49.5q-0.9 0-1.7-0.4-0.8-0.3-1.4-0.9-0.5-0.6-0.9-1.4-0.3-0.8-0.3-1.7v-50.2q0-0.9 0.3-1.7 0.4-0.8 0.9-1.4 0.6-0.6 1.4-0.9 0.8-0.3 1.7-0.3h49.5q0.8 0 1.6 0.3zm0.9 11.7h-23.3v17.8l3.2-3.3q0.6-0.6 1.3-0.9 0.8-0.3 1.5-0.3 0.8 0 1.5 0.3 0.8 0.3 1.3 0.9 0.6 0.5 0.9 1.3 0.3 0.7 0.3 1.5 0 0.8-0.3 1.5-0.3 0.8-0.9 1.3l-10 10.2q-0.1 0.1-0.3 0.3 0 0 0 0-0.1 0.1-0.3 0.2-0.2 0.1-0.3 0.2h-0.1q-0.1 0.1-0.3 0.2-0.2 0-0.3 0.1h-0.1q-0.1 0-0.3 0.1 0 0 0 0-0.2 0-0.4 0 0 0 0 0-0.2 0.1-0.4 0.1-0.2 0-0.3-0.1h-0.1q-0.1 0-0.3 0-0.2-0.1-0.4-0.1-0.2-0.1-0.3-0.1h-0.1q-0.1-0.1-0.3-0.2-0.2-0.1-0.3-0.2h-0.1q-0.1-0.1-0.3-0.2 0 0 0 0-0.1-0.2-0.3-0.3l-10-10.2c-0.7-0.7-1.1-1.7-1.1-2.8 0-1.1 0.4-2.1 1.1-2.8 0.8-0.8 1.8-1.2 2.8-1.2 1.1 0 2.1 0.4 2.8 1.2l3.3 3.3v-17.8h-23.4v42.5q0 0.6 0.2 1 0.2 0.5 0.5 0.9 0.4 0.3 0.9 0.5 0.4 0.2 1 0.2h49.5q0.5 0 1-0.2 0.4-0.2 0.8-0.5 0.4-0.4 0.6-0.9 0.1-0.4 0.1-1zm0-7.7q0-0.5-0.1-1-0.2-0.5-0.6-0.9-0.4-0.3-0.8-0.5-0.5-0.2-1-0.2h-49.5q-0.6 0-1 0.2-0.5 0.2-0.9 0.5-0.3 0.4-0.5 0.9-0.2 0.5-0.2 1v6h23.4v-1.2c0-1.1 0.4-2.1 1.1-2.9 0.8-0.7 1.8-1.1 2.8-1.1 1.1 0 2.1 0.4 2.8 1.1 0.8 0.8 1.2 1.8 1.2 2.9v1.2h23.3zm-37.7 42.7q0.5 0.2 0.9 0.6 0.5 0.3 0.8 0.8 0.3 0.5 0.5 1h31.3q0.3 0 0.6 0.3 0.2 0.2 0.2 0.6 0 0.3-0.2 0.6-0.3 0.2-0.6 0.2h-31.3c-0.2 0.8-0.7 1.4-1.3 1.9-0.6 0.5-1.3 0.7-2 0.7-0.8 0-1.5-0.2-2.1-0.7-0.6-0.5-1-1.1-1.2-1.9h-8.2q-0.4 0-0.6-0.2-0.3-0.3-0.3-0.6 0-0.4 0.3-0.6 0.2-0.3 0.6-0.3h8.2q0.1-0.5 0.4-1 0.3-0.5 0.8-0.8 0.4-0.4 1-0.6 0.5-0.2 1.1-0.2 0.5 0 1.1 0.2zm-0.5 4.9q0.3-0.2 0.6-0.4 0.2-0.2 0.3-0.6 0.2-0.3 0.2-0.6c0-0.7-0.5-1.3-1.1-1.6-0.6-0.3-1.4-0.1-1.8 0.4-0.5 0.5-0.7 1.2-0.4 1.8 0.3 0.7 0.9 1.1 1.6 1.1q0.3 0 0.6-0.1zm13.5-19.3q-0.1-0.1-0.2-0.2-0.1-0.1-0.1-0.2 0-0.2 0-0.3v-22.8c0-0.6-0.3-1.2-0.7-1.6-0.4-0.4-1-0.7-1.6-0.7-0.6 0-1.1 0.3-1.6 0.7-0.4 0.4-0.6 1-0.6 1.6v22.8q0 0.3-0.2 0.5-0.1 0.2-0.4 0.3-0.2 0.1-0.4 0-0.3 0-0.5-0.2l-4.7-4.8c-0.4-0.4-1-0.6-1.6-0.6-0.6 0-1.2 0.2-1.6 0.6-0.4 0.5-0.6 1-0.6 1.6 0 0.6 0.2 1.2 0.6 1.7l10 10.1q0.1 0.1 0.2 0.2 0 0 0 0 0.1 0 0.2 0.1 0.1 0.1 0.2 0.1 0.1 0.1 0.2 0.1 0.1 0.1 0.2 0.1 0 0 0 0 0.1 0 0.2 0 0.1 0.1 0.2 0.1 0.1 0 0.1 0 0.1 0 0.1 0 0.1 0 0.1 0 0.1 0 0.1 0 0 0 0.1 0 0 0 0.1-0.1 0.1 0 0.1 0 0.1 0 0.2 0 0 0 0 0 0.1 0 0.2-0.1 0.1 0 0.2-0.1 0.1 0 0.1-0.1h0.1q0.1-0.1 0.1-0.1 0 0 0.1 0 0-0.1 0.1-0.2l10-10.1q0.3-0.4 0.5-0.8 0.2-0.4 0.2-0.9 0-0.4-0.2-0.8-0.2-0.5-0.5-0.8-0.3-0.3-0.7-0.5-0.4-0.1-0.9-0.1-0.4 0-0.8 0.1-0.4 0.2-0.8 0.5l-4.7 4.8q-0.1 0.1-0.2 0.2-0.1 0-0.2 0-0.1 0.1-0.3 0.1-0.1-0.1-0.2-0.1-0.1 0-0.2-0.1zm-18.3-27.1q0.2 0 0.3 0.2 0.1 0.1 0.2 0.2 0 0.2 0 0.4c0 0.3-0.2 0.6-0.5 0.8-0.3 0.1-0.7 0-0.9-0.2-0.2-0.3-0.3-0.6-0.2-1 0.1-0.3 0.5-0.5 0.8-0.5q0.2 0 0.3 0.1zm-6.8 0q0.2 0 0.3 0.2 0.1 0.1 0.2 0.2 0 0.2 0 0.4c0 0.3-0.2 0.6-0.5 0.8-0.3 0.1-0.7 0-0.9-0.2-0.3-0.3-0.3-0.6-0.2-1 0.1-0.3 0.4-0.5 0.8-0.5q0.2 0 0.3 0.1zm3.4 0q0.2 0 0.3 0.2 0.1 0.1 0.2 0.2 0 0.2 0 0.4c0 0.3-0.2 0.6-0.5 0.8-0.3 0.1-0.7 0-0.9-0.2-0.2-0.3-0.3-0.6-0.2-1 0.1-0.3 0.5-0.5 0.8-0.5q0.2 0 0.3 0.1z"/><text style="transform:matrix(1,0,0,1,61,49)" ><tspan x="0" y="0" class="b">S</tspan><tspan  y="0" class="b">M</tspan><tspan  y="0" class="b">D
</tspan></text></svg>