<svg xmlns="http://www.w3.org/2000/svg" version="1.1" xmlns:xlink="http://www.w3.org/1999/xlink" xmlns:svgjs="http://svgjs.com/svgjs" width="1440" height="560" preserveAspectRatio="none" viewBox="0 0 1440 560"><g mask="url(&quot;#SvgjsMask1034&quot;)" fill="none"><rect width="1440" height="560" x="0" y="0" fill="url(#SvgjsRadialGradient1035)"></rect><path d="M1267.52 428.38 a7.03 7.03 0 1 0 14.06 0 a7.03 7.03 0 1 0 -14.06 0z" fill="rgba(253, 73, 0, 1)"></path><path d="M818.85 476.85L848.39 476.85L848.39 504.6L818.85 504.6z" stroke="#e73635"></path><path d="M817.14 556.13L872.84 556.13L872.84 611.83L817.14 611.83z" fill="rgba(253, 73, 0, 1)"></path><path d="M336.48 206.66a2.55 2.55 0 1 0 0.32 5.09z" stroke="#e73635"></path><path d="M209.98 410.2L213.74 410.2L213.74 450.16L209.98 450.16z" fill="rgba(253, 73, 0, 1)"></path><path d="M893.18 62.77 a10.7 10.7 0 1 0 21.4 0 a10.7 10.7 0 1 0 -21.4 0z" fill="#e73635"></path><path d="M1121.31 117.87 a24.25 24.25 0 1 0 48.5 0 a24.25 24.25 0 1 0 -48.5 0z" fill="rgba(253, 0, 175, 1)"></path><path d="M266.98 476.24a12.35 12.35 0 1 0 4.81 24.23z" stroke="rgba(253, 0, 175, 1)"></path><path d="M1332.96 528.34L1379.09 528.34L1379.09 570.66L1332.96 570.66z" fill="#e73635"></path><path d="M976.4 271.56 a49.04 49.04 0 1 0 98.08 0 a49.04 49.04 0 1 0 -98.08 0z" fill="#e73635"></path><path d="M689.39 171.9a53.6 53.6 0 1 0 106.8 9.18z" stroke="rgba(253, 0, 175, 1)"></path><path d="M755.76 413.82 a19.92 19.92 0 1 0 39.84 0 a19.92 19.92 0 1 0 -39.84 0z" stroke="rgba(253, 0, 175, 1)"></path><path d="M563.94 517.07a43.15 43.15 0 1 0 86.16 4.86z" stroke="#e73635"></path><path d="M324.62 316.46L367.59 316.46L367.59 359.43L324.62 359.43z" stroke="#e73635"></path><path d="M822.34 472.8a38.84 38.84 0 1 0-69.39 34.91z" stroke="rgba(253, 73, 0, 1)"></path><path d="M1219.74 208.88 a5.32 5.32 0 1 0 10.64 0 a5.32 5.32 0 1 0 -10.64 0z" fill="rgba(253, 73, 0, 1)"></path><path d="M538.3 179.92 a39.86 39.86 0 1 0 79.72 0 a39.86 39.86 0 1 0 -79.72 0z" fill="#e73635"></path><path d="M660.05 359.6L711.42 359.6L711.42 393.01L660.05 393.01z" fill="rgba(253, 0, 175, 1)"></path><path d="M1003.65 357.58L1006.21 357.58L1006.21 360.14L1003.65 360.14z" fill="#e73635"></path><path d="M806.13 31.07a48.82 48.82 0 1 0 97.04-10.74z" stroke="#e73635"></path><path d="M1115.69 515.55 a23.99 23.99 0 1 0 47.98 0 a23.99 23.99 0 1 0 -47.98 0z" fill="rgba(253, 73, 0, 1)"></path><path d="M249.75 238.97a34.45 34.45 0 1 0 10.69-68.07z" stroke="rgba(253, 73, 0, 1)"></path><path d="M473.21 137.58L491.88 137.58L491.88 176.4L473.21 176.4z" fill="rgba(253, 73, 0, 1)"></path><path d="M549.8 422.95L566.11 422.95L566.11 475.02L549.8 475.02z" fill="#e73635"></path><path d="M589.53 103.63L620.85 103.63L620.85 134.95L589.53 134.95z" stroke="rgba(253, 0, 175, 1)"></path><path d="M936.33 547.33L966.28 547.33L966.28 560.34L936.33 560.34z" stroke="rgba(253, 0, 175, 1)"></path><path d="M955.08 110.6L986.15 110.6L986.15 129.82L955.08 129.82z" stroke="#e73635"></path><path d="M1015.67 188.21L1042.53 188.21L1042.53 213.41L1015.67 213.41z" fill="rgba(253, 0, 175, 1)"></path><path d="M859.82 273.43 a28.46 28.46 0 1 0 56.92 0 a28.46 28.46 0 1 0 -56.92 0z" fill="rgba(253, 73, 0, 1)"></path><path d="M907.75 184.21L929.84 184.21L929.84 206.3L907.75 206.3z" fill="rgba(253, 73, 0, 1)"></path><path d="M758.23 26.15L763.75 26.15L763.75 31.67L758.23 31.67z" stroke="rgba(253, 73, 0, 1)"></path><path d="M133.31 167.23L164.23 167.23L164.23 192.88L133.31 192.88z" fill="#e73635"></path><path d="M1298.02 121.5L1333.02 121.5L1333.02 129.13L1298.02 129.13z" fill="rgba(253, 0, 175, 1)"></path></g><defs><mask id="SvgjsMask1034"><rect width="1440" height="560" fill="#ffffff"></rect></mask><radialGradient cx="100%" cy="0%" r="1545.06" gradientUnits="userSpaceOnUse" id="SvgjsRadialGradient1035"><stop stop-color="rgba(14, 42, 71, 1)" offset="0"></stop><stop stop-color="rgba(202, 46, 0, 1)" offset="0.58"></stop></radialGradient></defs></svg>