<svg width="230" height="184" viewBox="0 0 230 184" fill="none" xmlns="http://www.w3.org/2000/svg"><rect x="1" y="1" width="228" height="182" rx="4" fill="#fff" stroke="#D8DEE5" stroke-width="2"/><path fill-rule="evenodd" clip-rule="evenodd" d="M230 70.906H0V68.94h230v1.966z" fill="#D8DEE5"/><path fill-rule="evenodd" clip-rule="evenodd" d="M205.795 46.045a.983.983 0 010 1.39l-3.852 3.852a.983.983 0 01-1.39-1.39l3.852-3.852a.983.983 0 011.39 0z" fill="#fff"/><path fill-rule="evenodd" clip-rule="evenodd" d="M205.874 51.287a.983.983 0 01-1.39 0l-3.852-3.852a.983.983 0 111.39-1.39l3.852 3.852a.983.983 0 010 1.39z" fill="#fff"/><path fill-rule="evenodd" clip-rule="evenodd" d="M214.547 39.453H18.621a.655.655 0 00-.655.655v17.693c0 .362.293.655.655.655h195.926a.655.655 0 00.655-.655V40.108a.655.655 0 00-.655-.655zM18.621 37.487A2.621 2.621 0 0016 40.108v17.693a2.621 2.621 0 002.621 2.62h195.926a2.62 2.62 0 002.621-2.62V40.108a2.62 2.62 0 00-2.621-2.62H18.621z" fill="#D8DEE5"/><path fill="url(#paint0_linear)" d="M190 40h25v18h-25z"/><path d="M22.28 23.071a3.276 3.276 0 11-6.553 0 3.276 3.276 0 016.552 0zM32.763 23.071a3.276 3.276 0 11-6.552 0 3.276 3.276 0 016.552 0z" fill="#D8DEE5"/><path fill-rule="evenodd" clip-rule="evenodd" d="M39.971 25.037a1.966 1.966 0 100-3.931 1.966 1.966 0 000 3.931zm0 1.31a3.276 3.276 0 100-6.552 3.276 3.276 0 000 6.553z" fill="#D8DEE5"/><path opacity=".2" d="M15.727 85.322a3.276 3.276 0 013.276-3.277h34.19a3.276 3.276 0 013.276 3.277v34.074a3.276 3.276 0 01-3.276 3.276h-34.19a3.276 3.276 0 01-3.276-3.276V85.322zM69.459 85.322a3.276 3.276 0 013.276-3.277h34.19a3.276 3.276 0 013.276 3.277v34.074a3.276 3.276 0 01-3.276 3.276h-34.19a3.276 3.276 0 01-3.276-3.276V85.322zM122.536 85.322a3.276 3.276 0 013.276-3.277h34.19a3.276 3.276 0 013.276 3.277v34.074a3.276 3.276 0 01-3.276 3.276h-34.19a3.276 3.276 0 01-3.276-3.276V85.322zM176.268 85.322a3.276 3.276 0 013.276-3.277h34.19a3.276 3.276 0 013.276 3.277v34.074a3.276 3.276 0 01-3.276 3.276h-34.19a3.276 3.276 0 01-3.276-3.276V85.322zM15.727 137.088a3.276 3.276 0 013.276-3.276h34.19a3.276 3.276 0 013.276 3.276v34.074a3.277 3.277 0 01-3.276 3.277h-34.19a3.277 3.277 0 01-3.276-3.277v-34.074zM69.459 137.088a3.276 3.276 0 013.276-3.276h34.19a3.276 3.276 0 013.276 3.276v34.074a3.277 3.277 0 01-3.276 3.277h-34.19a3.277 3.277 0 01-3.276-3.277v-34.074zM122.536 137.088a3.276 3.276 0 013.276-3.276h34.19a3.276 3.276 0 013.276 3.276v34.074a3.277 3.277 0 01-3.276 3.277h-34.19a3.277 3.277 0 01-3.276-3.277v-34.074z" fill="#B8C3D2"/><path fill-rule="evenodd" clip-rule="evenodd" d="M122.571 65a1.999 1.999 0 01-1.427-.599l-2.893-2.946a2 2 0 00-2.854 0l-2.892 2.946c-.377.383-.891.6-1.428.6H99.111A4.111 4.111 0 0095 69.11V80.89C95 83.16 96.84 85 99.111 85h34.778c2.27 0 4.111-1.84 4.111-4.11V69.11a4.111 4.111 0 00-4.111-4.11h-11.318z" fill="#79B5FC"/><path d="M107.74 72.118c-.699 0-1.251.234-1.657.7-.403.464-.605 1.1-.605 1.91 0 .832.194 1.476.583 1.931.391.452.948.678 1.67.678.444 0 .95-.08 1.518-.239v.648c-.441.166-.984.248-1.631.248-.937 0-1.66-.284-2.17-.852-.508-.569-.761-1.376-.761-2.423 0-.655.121-1.23.365-1.722.246-.493.6-.873 1.061-1.14.464-.266 1.009-.4 1.635-.4.667 0 1.25.122 1.749.366l-.313.635a3.374 3.374 0 00-1.444-.34zm6.902 3.401c0 .777-.196 1.385-.587 1.823-.391.435-.932.652-1.622.652-.427 0-.805-.1-1.136-.3-.33-.2-.585-.487-.765-.861-.18-.374-.27-.812-.27-1.314 0-.777.195-1.381.583-1.813.389-.435.928-.653 1.618-.653.667 0 1.196.222 1.588.666.394.444.591 1.044.591 1.8zm-3.632 0c0 .61.122 1.073.366 1.392.243.32.601.479 1.074.479.473 0 .831-.158 1.074-.474.247-.32.37-.785.37-1.397 0-.606-.123-1.065-.37-1.378-.243-.316-.604-.474-1.083-.474-.472 0-.829.155-1.07.465-.24.31-.361.773-.361 1.387zm7.12 2.475a2.1 2.1 0 01-.852-.17 1.623 1.623 0 01-.644-.53h-.052c.035.278.052.542.052.791v1.962h-.722V73.14h.587l.1.653h.035c.186-.261.402-.45.648-.566a1.97 1.97 0 01.848-.174c.632 0 1.119.216 1.462.648.345.433.517 1.039.517 1.818 0 .783-.175 1.392-.526 1.827-.348.432-.832.648-1.453.648zm-.104-4.327c-.487 0-.84.135-1.057.404-.217.27-.329.699-.335 1.288v.16c0 .67.112 1.15.335 1.44.223.287.581.43 1.074.43.412 0 .734-.166.966-.5.235-.333.352-.792.352-1.378 0-.595-.117-1.05-.352-1.366-.232-.319-.56-.478-.983-.478zm2.592-.527h.774l1.044 2.719c.229.62.371 1.068.426 1.344h.035c.038-.148.116-.4.235-.757.122-.36.516-1.462 1.183-3.306h.774l-2.048 5.428c-.203.537-.441.917-.714 1.14-.269.226-.601.34-.996.34-.22 0-.437-.026-.652-.075v-.578c.159.035.338.052.535.052.496 0 .85-.279 1.061-.835l.265-.679-1.922-4.793z" fill="#fff"/><g filter="url(#filter0_dd)"><path fill-rule="evenodd" clip-rule="evenodd" d="M134.259 75.815c.517 0 .936-.419.936-.936v-2.943a.936.936 0 10-1.873 0v2.943c0 .517.42.936.937.936zm-6.473-2.029a.937.937 0 011.324 0l2.081 2.08a.938.938 0 01-1.325 1.325l-2.08-2.08a.936.936 0 010-1.325zm19.365 15.324l5.572 5.572a.936.936 0 010 1.324l-2.719 2.72a.936.936 0 01-1.324 0l-5.572-5.573-2.296 3.976a.935.935 0 01-1.681-.122l-7.07-17.729a.937.937 0 011.217-1.216l17.727 7.071a.937.937 0 01.121 1.68l-3.975 2.297zm-17.336-8.85a.936.936 0 00-.936-.937h-2.943a.936.936 0 000 1.873h2.943c.517 0 .936-.42.936-.937zm-2.46 4.97l2.081-2.08a.936.936 0 011.324 1.324l-2.081 2.08a.935.935 0 01-1.324 0 .936.936 0 010-1.324zm11.117-8.47a.935.935 0 11-1.324-1.324l2.081-2.08a.936.936 0 011.324 1.323l-2.081 2.081z" fill="#fff"/><path d="M129.11 73.786l.071-.07-.071.07zm-1.324 0l-.071-.07.071.07zm3.405 2.08l-.071.071.071-.07zm0 1.325l.07.07-.07-.07zm-1.325 0l-.07.07.07-.07zm-2.08-2.08l-.071.07.071-.07zm24.937 19.571l-.071.07.071-.07zm-5.572-5.572l-.05-.087-.113.065.092.092.071-.07zm5.572 6.896l.071.071-.071-.07zm-2.719 2.72l-.071-.071.071.07zm-1.324 0l.071-.071-.071.07zm-5.572-5.573l.071-.07-.092-.093-.066.113.087.05zm-2.296 3.976l-.087-.05.087.05zm-.878.465l.007-.1-.007.1zm-.803-.587l-.092.037.092-.037zm-7.07-17.729l.093-.037-.093.037zm.208-1.009l-.071-.07.071.07zm1.009-.207l-.037.093.037-.093zm17.727 7.071l-.037.093.037-.093zm.587.802l-.1.007.1-.007zm-.466.879l-.05-.087.05.087zm-22.247-5.618v.1-.1zm.557 1.953l-.071-.07.071.07zm-2.081 2.081l-.071-.07.071.07zm3.405-2.08l.07-.071-.07.07zm0 1.324l.07.07-.07-.07zm-2.081 2.08l-.071-.07.071.07zm-1.324 0l-.071.07v.001l.071-.07zm11.117-9.794l.071.07-.071-.07zm-1.324 0l-.07.07.07-.07zm0-1.324l.071.07-.071-.07zm2.081-2.08l-.071-.072.071.071zm1.324 0l.071-.072-.071.071zm0 1.323l-.071-.07.071.07zm-5.458.2a.837.837 0 01-.836.836v.2c.572 0 1.036-.464 1.036-1.036h-.2zm0-2.943v2.943h.2v-2.943h-.2zm-.836-.836c.462 0 .836.375.836.836h.2c0-.572-.464-1.036-1.036-1.036v.2zm-.837.836c0-.462.375-.836.837-.836v-.2c-.573 0-1.037.464-1.037 1.036h.2zm0 2.943v-2.943h-.2v2.943h.2zm.837.836a.837.837 0 01-.837-.836h-.2c0 .572.464 1.036 1.037 1.036v-.2zm-5.078-2a1.037 1.037 0 00-1.466 0l.142.142a.837.837 0 011.183 0l.141-.142zm2.08 2.081l-2.08-2.08-.141.14 2.08 2.081.141-.141zm0 1.466a1.036 1.036 0 000-1.466l-.141.141a.836.836 0 010 1.183l.141.142zm-.732.303c.265 0 .53-.101.732-.303l-.141-.142a.832.832 0 01-.591.245v.2zm-.733-.303c.202.202.467.303.733.303v-.2a.835.835 0 01-.592-.245l-.141.142zm-2.081-2.08l2.081 2.08.141-.142-2.08-2.08-.142.141zm0-1.467a1.038 1.038 0 000 1.466l.142-.141a.836.836 0 010-1.183l-.142-.142zm25.079 20.896l-5.572-5.572-.142.141 5.572 5.573.142-.142zm0 1.466a1.038 1.038 0 000-1.466l-.142.142a.836.836 0 010 1.183l.142.141zm-2.719 2.72l2.719-2.72-.142-.141-2.719 2.719.142.141zm-.733.303c.275 0 .539-.11.733-.304l-.142-.141a.834.834 0 01-.591.245v.2zm-.733-.304c.194.195.458.304.733.304v-.2a.834.834 0 01-.591-.245l-.142.141zm-5.572-5.572l5.572 5.572.142-.141-5.572-5.572-.142.141zm-2.138 3.955l2.296-3.976-.174-.1-2.296 3.976.174.1zm-.972.515c.396.029.773-.172.972-.515l-.174-.1a.834.834 0 01-.784.415l-.014.2zm-.888-.65c.147.369.492.621.888.65l.014-.2a.837.837 0 01-.717-.524l-.185.074zm-7.071-17.729l7.071 17.73.185-.075-7.07-17.729-.186.074zm.23-1.116a1.037 1.037 0 00-.23 1.116l.186-.074a.835.835 0 01.186-.901l-.142-.141zm1.117-.23a1.037 1.037 0 00-1.117.23l.142.141a.836.836 0 01.901-.185l.074-.186zm17.727 7.071l-17.727-7.071-.074.186 17.727 7.07.074-.185zm.649.888a1.034 1.034 0 00-.649-.888l-.074.186a.837.837 0 01.524.716l.199-.014zm-.515.972c.344-.199.544-.576.515-.972l-.199.014a.835.835 0 01-.416.785l.1.173zm-3.975 2.296l3.975-2.296-.1-.173-3.975 2.296.1.173zm-18.322-9.773c.462 0 .836.375.836.836h.2c0-.572-.464-1.036-1.036-1.036v.2zm-2.943 0h2.943v-.2h-2.943v.2zm-.836.836c0-.462.375-.836.836-.836v-.2c-.572 0-1.036.464-1.036 1.036h.2zm.836.837a.836.836 0 01-.836-.837h-.2c0 .573.464 1.037 1.036 1.037v-.2zm2.943 0h-2.943v.2h2.943v-.2zm.836-.837a.836.836 0 01-.836.837v.2c.572 0 1.036-.464 1.036-1.037h-.2zm-.35 2.82l-2.081 2.08.141.142 2.081-2.081-.141-.141zm1.465 0a1.036 1.036 0 00-1.465 0l.141.141a.837.837 0 011.183 0l.141-.141zm0 1.465a1.036 1.036 0 000-1.465l-.141.141a.836.836 0 010 1.183l.141.141zm-2.08 2.08l2.08-2.08-.141-.141-2.081 2.08.142.142zm-.733.305c.265 0 .53-.102.733-.304l-.142-.141a.832.832 0 01-.591.245v.2zm-.733-.304c.202.202.468.303.733.303v-.2a.836.836 0 01-.592-.244l-.141.141zm0-1.466a1.036 1.036 0 000 1.466l.141-.141a.837.837 0 010-1.183l-.141-.142zm10.526-8.025c.266 0 .531-.101.733-.303l-.141-.142a.835.835 0 01-.592.245v.2zm-.732-.303c.202.202.467.303.732.303v-.2a.832.832 0 01-.591-.245l-.141.142zm0-1.466a1.036 1.036 0 000 1.466l.141-.142a.836.836 0 010-1.182l-.141-.142zm2.08-2.08l-2.08 2.08.141.142 2.08-2.081-.141-.142zm1.466 0a1.037 1.037 0 00-1.466 0l.141.14a.837.837 0 011.183 0l.142-.14zm0 1.465a1.038 1.038 0 000-1.466l-.142.142a.836.836 0 010 1.183l.142.141zm-2.081 2.08l2.081-2.08-.142-.141-2.08 2.08.141.142z" fill="#D9E7F7"/></g><path d="M36.91 53v-9.814h2.058v2.408l-.098 1.246c.261-.233.565-.448.91-.644.345-.205.756-.308 1.232-.308.756 0 1.302.247 1.638.742.345.495.518 1.18.518 2.058V53H41.11v-4.046c0-.504-.07-.85-.21-1.036-.13-.187-.345-.28-.644-.28-.261 0-.485.06-.672.182a3.596 3.596 0 00-.616.49V53H36.91zm10.672.168c-.43 0-.798-.065-1.106-.196a1.998 1.998 0 01-.742-.546 2.37 2.37 0 01-.42-.84 4.557 4.557 0 01-.126-1.106v-2.814h-.952V46.14l1.064-.084.238-1.848h1.708v1.848h1.666v1.61h-1.666v2.786c0 .392.08.677.238.854.168.168.387.252.658.252.112 0 .224-.014.336-.042.121-.028.229-.06.322-.098l.322 1.498a9.458 9.458 0 01-.658.168 4.1 4.1 0 01-.882.084zm5.086 0c-.43 0-.798-.065-1.106-.196a1.998 1.998 0 01-.742-.546 2.367 2.367 0 01-.42-.84 4.557 4.557 0 01-.126-1.106v-2.814h-.952V46.14l1.064-.084.238-1.848h1.708v1.848h1.666v1.61h-1.666v2.786c0 .392.08.677.238.854.168.168.387.252.658.252.112 0 .224-.014.336-.042.121-.028.229-.06.322-.098l.322 1.498a9.473 9.473 0 01-.658.168 4.1 4.1 0 01-.882.084zm2.685 2.408v-9.52h1.68l.14.686h.056c.271-.243.574-.443.91-.602.346-.168.7-.252 1.064-.252a2.5 2.5 0 011.134.252c.336.168.621.406.854.714.234.308.411.681.532 1.12.131.43.196.91.196 1.442 0 .597-.084 1.13-.252 1.596-.158.457-.378.85-.658 1.176-.27.317-.583.56-.938.728a2.436 2.436 0 01-1.078.252c-.298 0-.588-.06-.868-.182a2.9 2.9 0 01-.784-.546l.07 1.106v2.03h-2.058zm3.164-4.088c.355 0 .658-.159.91-.476.252-.327.378-.85.378-1.568 0-1.25-.401-1.876-1.204-1.876-.401 0-.798.21-1.19.63v2.842c.187.168.374.285.56.35.187.065.369.098.546.098zm6.837 1.68a4.11 4.11 0 01-1.414-.266 4.361 4.361 0 01-1.246-.7l.924-1.288c.318.243.621.425.91.546.29.121.584.182.882.182.308 0 .532-.051.672-.154a.507.507 0 00.21-.434.403.403 0 00-.126-.294 1.02 1.02 0 00-.322-.252c-.13-.075-.28-.14-.448-.196-.168-.065-.34-.135-.518-.21a6.562 6.562 0 01-.644-.294 2.863 2.863 0 01-.588-.406 2.166 2.166 0 01-.434-.574 1.7 1.7 0 01-.168-.77c0-.317.061-.611.182-.882.131-.27.313-.5.546-.686.234-.187.514-.331.84-.434.327-.112.691-.168 1.092-.168.532 0 1 .093 1.4.28.402.177.752.378 1.05.602l-.924 1.232a3.638 3.638 0 00-.742-.434 1.855 1.855 0 00-.728-.154c-.522 0-.784.182-.784.546 0 .112.038.21.112.294.075.075.173.145.294.21.131.065.276.13.434.196.168.056.341.117.518.182.224.084.444.182.658.294.224.103.425.233.602.392a1.76 1.76 0 01.616 1.4c0 .317-.06.611-.182.882-.12.27-.303.509-.546.714a2.911 2.911 0 01-.896.476 4.097 4.097 0 01-1.232.168zm5.353-4.536c-.354 0-.653-.121-.896-.364a1.31 1.31 0 01-.35-.924c0-.373.117-.681.35-.924.243-.252.542-.378.896-.378.355 0 .65.126.882.378.243.243.364.55.364.924 0 .364-.12.672-.364.924a1.172 1.172 0 01-.882.364zm0 4.536c-.354 0-.653-.121-.896-.364a1.31 1.31 0 01-.35-.924c0-.373.117-.681.35-.924.243-.252.542-.378.896-.378.355 0 .65.126.882.378.243.243.364.55.364.924 0 .364-.12.672-.364.924a1.172 1.172 0 01-.882.364zm2.28 2.072L75.8 43.06h1.344L74.33 55.24h-1.344zm4.744 0l2.814-12.18h1.344l-2.814 12.18H77.73zM84.365 53l-1.736-6.944h2.044l.672 3.22c.056.345.107.686.154 1.022.047.336.098.681.154 1.036h.056c.065-.355.126-.705.182-1.05.065-.345.14-.681.224-1.008l.77-3.22h1.778l.784 3.22c.084.345.159.686.224 1.022.065.336.135.681.21 1.036h.056c.065-.355.117-.7.154-1.036.047-.336.103-.677.168-1.022l.658-3.22h1.904L91.155 53h-2.408l-.63-2.772a18.16 18.16 0 01-.196-.98l-.182-1.05h-.056l-.182 1.05a17.98 17.98 0 01-.168.98L86.717 53h-2.352zm10.87 0l-1.737-6.944h2.044l.672 3.22c.056.345.107.686.154 1.022.047.336.098.681.154 1.036h.056c.065-.355.126-.705.182-1.05.065-.345.14-.681.224-1.008l.77-3.22h1.778l.784 3.22c.084.345.159.686.224 1.022.065.336.135.681.21 1.036h.056c.065-.355.117-.7.154-1.036.047-.336.103-.677.168-1.022l.658-3.22h1.904L102.024 53h-2.408l-.63-2.772a18.16 18.16 0 01-.196-.98l-.182-1.05h-.056l-.182 1.05a17.98 17.98 0 01-.168.98L97.586 53h-2.352zm10.868 0l-1.736-6.944h2.044l.672 3.22c.056.345.108.686.154 1.022.047.336.098.681.154 1.036h.056c.066-.355.126-.705.182-1.05.066-.345.14-.681.224-1.008l.77-3.22h1.778l.784 3.22c.084.345.159.686.224 1.022.066.336.136.681.21 1.036h.056c.066-.355.117-.7.154-1.036.047-.336.103-.677.168-1.022l.658-3.22h1.904L112.893 53h-2.408l-.63-2.772c-.074-.327-.14-.653-.196-.98-.056-.327-.116-.677-.182-1.05h-.056l-.182 1.05c-.046.327-.102.653-.168.98L108.455 53h-2.352zm9.735.168a1.22 1.22 0 01-.896-.364 1.311 1.311 0 01-.35-.924c0-.373.117-.681.35-.924.243-.252.542-.378.896-.378.355 0 .649.126.882.378.243.243.364.55.364.924 0 .364-.121.672-.364.924a1.17 1.17 0 01-.882.364zm5.349 0c-.43 0-.822-.084-1.176-.252a2.635 2.635 0 01-.896-.714 3.669 3.669 0 01-.574-1.148 5.44 5.44 0 01-.196-1.526c0-.57.079-1.078.238-1.526.168-.448.382-.826.644-1.134.27-.317.578-.56.924-.728a2.493 2.493 0 011.078-.252c.392 0 .714.065.966.196.252.13.499.308.742.532l-.084-1.064v-2.366h2.058V53h-1.68l-.14-.686h-.056a3.406 3.406 0 01-.854.616 2.254 2.254 0 01-.994.238zm.532-1.68c.224 0 .424-.047.602-.14.186-.093.364-.257.532-.49v-2.842a1.644 1.644 0 00-.574-.35 1.814 1.814 0 00-.574-.098c-.327 0-.616.159-.868.476-.252.308-.378.793-.378 1.456 0 .69.107 1.195.322 1.512.224.317.536.476.938.476zm6.765 1.68c-.317 0-.606-.056-.868-.168a1.831 1.831 0 01-.644-.434 2.282 2.282 0 01-.42-.672 2.368 2.368 0 01-.14-.826c0-.728.308-1.297.924-1.708.616-.41 1.61-.686 2.982-.826-.018-.308-.112-.55-.28-.728-.158-.187-.429-.28-.812-.28a2.54 2.54 0 00-.896.168 6.665 6.665 0 00-.938.462l-.742-1.358a7.36 7.36 0 011.4-.658 4.847 4.847 0 011.568-.252c.896 0 1.578.257 2.044.77.476.504.714 1.293.714 2.366V53h-1.68l-.14-.714h-.056a4.64 4.64 0 01-.938.644 2.432 2.432 0 01-1.078.238zm.7-1.596c.234 0 .434-.051.602-.154a2.92 2.92 0 00.532-.434v-1.218c-.728.103-1.232.252-1.512.448s-.42.43-.42.7c0 .224.07.392.21.504.15.103.346.154.588.154zM134.117 53v-6.944h2.058V53h-2.058zm1.022-7.966c-.345 0-.63-.098-.854-.294a1.017 1.017 0 01-.336-.784c0-.317.112-.574.336-.77.224-.196.509-.294.854-.294.355 0 .639.098.854.294a.974.974 0 01.336.77c0 .317-.112.579-.336.784-.215.196-.499.294-.854.294zm4.737 8.134c-.354 0-.653-.056-.896-.168a1.54 1.54 0 01-.588-.462 2.157 2.157 0 01-.308-.728 4.414 4.414 0 01-.098-.966v-7.658h2.058v7.742c0 .215.038.364.112.448.084.084.168.126.252.126h.112c.038 0 .084-.01.14-.028l.252 1.526a1.923 1.923 0 01-.434.112 2.808 2.808 0 01-.602.056zm2.886 2.548c-.215 0-.397-.014-.546-.042a2.258 2.258 0 01-.434-.098l.364-1.568c.065.019.14.037.224.056.084.019.163.028.238.028.345 0 .611-.084.798-.252.187-.168.327-.387.42-.658l.098-.364-2.674-6.762h2.072l.994 2.982c.103.317.196.64.28.966.084.327.173.663.266 1.008h.056l.224-.98c.084-.336.168-.667.252-.994l.84-2.982h1.974L145.8 53.07a8.282 8.282 0 01-.532 1.148 2.873 2.873 0 01-.63.826 2.285 2.285 0 01-.812.504 3.03 3.03 0 01-1.064.168zM149.293 53v-6.944h1.68l.14.896h.056c.289-.29.597-.537.924-.742.326-.215.718-.322 1.176-.322.494 0 .891.103 1.19.308a2 2 0 01.728.854c.308-.317.63-.588.966-.812.345-.233.751-.35 1.218-.35.746 0 1.292.252 1.638.756.354.495.532 1.176.532 2.044V53h-2.058v-4.046c0-.504-.07-.85-.21-1.036-.131-.187-.346-.28-.644-.28-.346 0-.742.224-1.19.672V53h-2.058v-4.046c0-.504-.07-.85-.21-1.036-.131-.187-.346-.28-.644-.28-.355 0-.747.224-1.176.672V53h-2.058zm14.986.168a3.5 3.5 0 01-1.274-.238 3.397 3.397 0 01-1.092-.714 3.456 3.456 0 01-.742-1.134c-.187-.457-.28-.975-.28-1.554 0-.579.093-1.092.28-1.54.186-.457.434-.84.742-1.148a3.212 3.212 0 011.092-.7 3.33 3.33 0 011.274-.252c.438 0 .858.084 1.26.252.41.159.77.392 1.078.7.317.308.569.69.756 1.148.186.448.28.961.28 1.54 0 .579-.094 1.097-.28 1.554a3.365 3.365 0 01-1.834 1.848 3.4 3.4 0 01-1.26.238zm0-1.666c.42 0 .737-.177.952-.532.214-.355.322-.835.322-1.442s-.108-1.087-.322-1.442c-.215-.355-.532-.532-.952-.532-.43 0-.752.177-.966.532-.206.355-.308.835-.308 1.442s.102 1.087.308 1.442c.214.355.536.532.966.532zm7.088 1.666c-.429 0-.798-.065-1.106-.196a2.003 2.003 0 01-.742-.546 2.39 2.39 0 01-.42-.84 4.557 4.557 0 01-.126-1.106v-2.814h-.952V46.14l1.064-.084.238-1.848h1.708v1.848h1.666v1.61h-1.666v2.786c0 .392.08.677.238.854.168.168.388.252.658.252.112 0 .224-.014.336-.042.122-.028.229-.06.322-.098l.322 1.498a9.372 9.372 0 01-.658.168 4.1 4.1 0 01-.882.084zm2.686-.168v-6.944h2.058V53h-2.058zm1.022-7.966c-.346 0-.63-.098-.854-.294a1.017 1.017 0 01-.336-.784c0-.317.112-.574.336-.77.224-.196.508-.294.854-.294.354 0 .639.098.854.294a.974.974 0 01.336.77c0 .317-.112.579-.336.784-.215.196-.5.294-.854.294zm5.829 8.134a3.5 3.5 0 01-1.274-.238 3.397 3.397 0 01-1.092-.714 3.456 3.456 0 01-.742-1.134c-.187-.457-.28-.975-.28-1.554 0-.579.093-1.092.28-1.54.186-.457.434-.84.742-1.148a3.212 3.212 0 011.092-.7 3.33 3.33 0 011.274-.252c.438 0 .858.084 1.26.252.41.159.77.392 1.078.7.317.308.569.69.756 1.148.186.448.28.961.28 1.54 0 .579-.094 1.097-.28 1.554a3.365 3.365 0 01-1.834 1.848 3.4 3.4 0 01-1.26.238zm0-1.666c.42 0 .737-.177.952-.532.214-.355.322-.835.322-1.442s-.108-1.087-.322-1.442c-.215-.355-.532-.532-.952-.532-.43 0-.752.177-.966.532-.206.355-.308.835-.308 1.442s.102 1.087.308 1.442c.214.355.536.532.966.532zM185.687 53v-6.944h1.68l.14.882h.056c.299-.28.626-.523.98-.728.355-.215.77-.322 1.246-.322.756 0 1.302.247 1.638.742.346.495.518 1.18.518 2.058V53h-2.058v-4.046c0-.504-.07-.85-.21-1.036-.13-.187-.345-.28-.644-.28-.261 0-.485.06-.672.182a3.623 3.623 0 00-.616.49V53h-2.058zm9.202.168c-.355 0-.653-.121-.896-.364a1.311 1.311 0 01-.35-.924c0-.373.117-.681.35-.924.243-.252.541-.378.896-.378s.649.126.882.378c.243.243.364.55.364.924 0 .364-.121.672-.364.924a1.17 1.17 0 01-.882.364zm5.895 0c-.486 0-.938-.08-1.358-.238a3.243 3.243 0 01-1.078-.714 3.29 3.29 0 01-.728-1.134c-.178-.457-.266-.975-.266-1.554 0-.579.098-1.092.294-1.54.196-.457.457-.84.784-1.148a3.422 3.422 0 011.162-.7 3.801 3.801 0 011.372-.252c.429 0 .807.07 1.134.21.336.14.634.317.896.532l-.966 1.33c-.327-.27-.64-.406-.938-.406-.504 0-.901.177-1.19.532-.29.355-.434.835-.434 1.442s.144 1.087.434 1.442c.298.355.672.532 1.12.532.224 0 .438-.047.644-.14.214-.103.415-.224.602-.364l.812 1.344a3.246 3.246 0 01-1.12.644 4.06 4.06 0 01-1.176.182zm6.096 0c-.438 0-.863-.08-1.274-.238a3.419 3.419 0 01-1.092-.714 3.472 3.472 0 01-.742-1.134 4.094 4.094 0 01-.28-1.554c0-.579.094-1.092.28-1.54a3.44 3.44 0 01.742-1.148 3.231 3.231 0 011.092-.7 3.338 3.338 0 011.274-.252c.439 0 .859.084 1.26.252.411.159.77.392 1.078.7.318.308.57.69.756 1.148.187.448.28.961.28 1.54 0 .579-.093 1.097-.28 1.554a3.336 3.336 0 01-.756 1.134 3.243 3.243 0 01-2.338.952zm0-1.666c.42 0 .738-.177.952-.532.215-.355.322-.835.322-1.442s-.107-1.087-.322-1.442c-.214-.355-.532-.532-.952-.532-.429 0-.751.177-.966.532-.205.355-.308.835-.308 1.442s.103 1.087.308 1.442c.215.355.537.532.966.532zM31 42h-7a3 3 0 00-3 3v7a3 3 0 003 3h7a3 3 0 003-3v-7a3 3 0 00-3-3z" fill="#D7DDE5"/><path d="M28.467 44.393v2.433s-.627-.871-1.87-.681a3.019 3.019 0 00-1.49.662c-.323.276-.606.609-.778 1a2.775 2.775 0 00-.215.755c-.125 1.02.254 2.184 1.116 2.79.246.172.559.353.849.436.558.161 1.167.153 1.709-.063.147-.059.286-.139.415-.23.054-.04.33-.212.33-.278l-.003.64 1.618-.002v-7.82l-1.681.358zm-1.325 6.018a1.41 1.41 0 110-2.818 1.41 1.41 0 010 2.818z" fill="#fff"/><defs><linearGradient id="paint0_linear" x1="207.187" y1="50.5" x2="180.106" y2="50.282" gradientUnits="userSpaceOnUse"><stop stop-color="#fff"/><stop offset="1" stop-color="#fff" stop-opacity="0"/></linearGradient><filter id="filter0_dd" x="89.9" y="32.9" width="108.197" height="108.2" filterUnits="userSpaceOnUse" color-interpolation-filters="sRGB"><feFlood flood-opacity="0" result="BackgroundImageFix"/><feColorMatrix in="SourceAlpha" values="0 0 0 0 0 0 0 0 0 0 0 0 0 0 0 0 0 0 127 0"/><feOffset dx="5" dy="2"/><feGaussianBlur stdDeviation="20"/><feColorMatrix values="0 0 0 0 0 0 0 0 0 0.460526 0 0 0 0 1 0 0 0 0.66 0"/><feBlend in2="BackgroundImageFix" result="effect1_dropShadow"/><feColorMatrix in="SourceAlpha" values="0 0 0 0 0 0 0 0 0 0 0 0 0 0 0 0 0 0 127 0"/><feOffset dx="5" dy="5"/><feGaussianBlur stdDeviation="5"/><feColorMatrix values="0 0 0 0 0.383333 0 0 0 0 0.360972 0 0 0 0 0.360972 0 0 0 0.08 0"/><feBlend in2="effect1_dropShadow" result="effect2_dropShadow"/><feBlend in="SourceGraphic" in2="effect2_dropShadow" result="shape"/></filter></defs></svg>
