<svg width="230" height="185" viewBox="0 0 230 185" fill="none" xmlns="http://www.w3.org/2000/svg"><rect x="1" y="1" width="228" height="182" rx="4" fill="#fff" stroke="#D8DEE5" stroke-width="2"/><rect opacity=".1" x="28" y="40" width="174" height="78" rx="2" fill="#B8C3D2"/><path opacity=".7" fill-rule="evenodd" clip-rule="evenodd" d="M125 79.5L105 92V67l20 12.5z" fill="#DCE4F0"/><rect x="29" y="126" width="172" height="36" rx="2" fill="#79B5FC"/><g filter="url(#filter0_dd)"><path fill-rule="evenodd" clip-rule="evenodd" d="M169.576 145.814a.943.943 0 00.943-.942v-2.962a.943.943 0 00-1.885 0v2.962c0 .52.422.942.942.942zm-6.514-2.042a.943.943 0 011.333 0l2.094 2.094a.943.943 0 01-1.333 1.333l-2.094-2.094a.943.943 0 010-1.333zm19.489 15.422l5.609 5.609a.942.942 0 010 1.332l-2.737 2.737a.94.94 0 01-1.333 0l-5.607-5.608-2.311 4.001a.943.943 0 01-1.692-.122l-7.115-17.844a.941.941 0 011.224-1.224l17.841 7.117a.941.941 0 01.122 1.691l-4.001 2.311zm-17.447-8.907a.943.943 0 00-.942-.943H161.2a.943.943 0 000 1.885h2.962c.52 0 .942-.422.942-.942zm-2.476 5.003l2.094-2.095a.944.944 0 011.333 1.333l-2.095 2.094a.939.939 0 01-1.332 0 .942.942 0 010-1.332zm11.189-8.525a.939.939 0 01-1.332 0 .943.943 0 010-1.333l2.094-2.094a.942.942 0 111.332 1.333l-2.094 2.094z" fill="#fff"/><path d="M164.395 143.772l.071-.071-.071.071zm-1.333 0l-.071-.071.071.071zm3.427 2.094l-.071.071.071-.071zm-1.333 1.333l-.071.071.071-.071zm-2.094-2.094l-.071.071.071-.071zm25.098 19.698l-.072.071.072-.071zm-5.609-5.609l-.05-.087-.113.066.092.092.071-.071zm5.609 6.941l.071.071-.071-.071zm-2.737 2.737l-.071-.071.071.071zm-1.333 0l.072-.071-.072.071zm-5.607-5.608l.071-.071-.093-.093-.066.114.088.05zm-2.311 4.001l-.087-.05.087.05zm-.884.468l.007-.1-.007.1zm-.808-.59l-.093.037.093-.037zm-7.115-17.844l.093-.037-.093.037zm.209-1.015l-.072-.071.072.071zm1.015-.209l-.037.093v.001l.037-.094zm17.841 7.117l-.037.093.037-.093zm.591.807l-.1.008.1-.008zm-.469.884l-.05-.087.05.087zm-22.39-5.654v.101-.101zm.56 1.966l-.071-.071.071.071zm-2.094 2.095l-.071-.072.071.072zm3.427-2.095l.071-.071-.071.071zm0 1.333l.071.071-.071-.071zm-2.095 2.094l-.071-.071.071.071zm-1.332 0l-.071.071.071-.071zm11.189-9.857l.072.071-.072-.071zm-1.332 0l-.072.071.072-.071zm0-1.333l.071.071-.071-.071zm2.094-2.094l-.072-.071.072.071zm1.332 0l.071-.071-.071.071zm0 1.333l-.071-.071.071.071zm-5.493.201a.842.842 0 01-.842.842v.201c.576 0 1.044-.467 1.044-1.043h-.202zm0-2.962v2.962h.202v-2.962h-.202zm-.842-.842c.465 0 .842.377.842.842h.202c0-.576-.467-1.043-1.044-1.043v.201zm-.841.842c0-.465.377-.842.841-.842v-.201c-.575 0-1.043.467-1.043 1.043h.202zm0 2.962v-2.962h-.202v2.962h.202zm.841.842a.842.842 0 01-.841-.842h-.202c0 .576.467 1.043 1.043 1.043v-.201zm-5.11-2.013a1.043 1.043 0 00-1.475 0l.142.142a.842.842 0 011.191 0l.142-.142zm2.094 2.094l-2.094-2.094-.142.142 2.094 2.094.142-.142zm0 1.475a1.044 1.044 0 000-1.475l-.142.142a.843.843 0 010 1.19l.142.143zm-.738.305c.267 0 .534-.102.738-.305l-.142-.143a.839.839 0 01-.596.247v.201zm-.737-.305c.203.203.47.305.737.305v-.201a.838.838 0 01-.595-.247l-.142.143zm-2.094-2.094l2.094 2.094.142-.143-2.094-2.094-.142.143zm0-1.475a1.044 1.044 0 000 1.475l.142-.143a.843.843 0 010-1.19l-.142-.142zm25.24 21.03l-5.608-5.608-.143.142 5.608 5.609.143-.143zm0 1.475a1.044 1.044 0 000-1.475l-.143.143a.842.842 0 01.001 1.19l.142.142zm-2.737 2.737l2.737-2.737-.142-.142-2.737 2.737.142.142zm-.737.306c.276 0 .542-.11.737-.306l-.142-.142a.842.842 0 01-.595.247v.201zm-.738-.306c.196.196.461.306.738.306v-.201a.84.84 0 01-.595-.247l-.143.142zm-5.608-5.608l5.608 5.608.143-.142-5.608-5.608-.143.142zm-2.152 3.98l2.311-4.001-.175-.1-2.31 4.001.174.1zm-.978.519c.398.029.778-.173.978-.519l-.174-.1a.843.843 0 01-.79.418l-.014.201zm-.894-.654c.148.371.495.625.894.654l.014-.201a.84.84 0 01-.721-.528l-.187.075zm-7.116-17.843l7.116 17.843.187-.075-7.116-17.843-.187.075zm.231-1.124a1.045 1.045 0 00-.231 1.124l.187-.075a.841.841 0 01.187-.907l-.143-.142zm1.124-.231a1.042 1.042 0 00-1.124.231l.143.142a.843.843 0 01.907-.187l.074-.186zm17.842 7.116l-17.842-7.116-.074.187 17.841 7.116.075-.187zm.653.894a1.041 1.041 0 00-.654-.894l-.074.187c.299.12.504.4.528.722l.2-.015zm-.518.978a1.04 1.04 0 00.518-.978l-.2.015a.842.842 0 01-.419.789l.101.174zm-4.001 2.311l4.001-2.311-.101-.174-4.001 2.311.101.174zm-18.44-9.836c.465 0 .842.377.842.842h.201c0-.576-.467-1.043-1.043-1.043v.201zm-2.962 0h2.962v-.201H161.2v.201zm-.841.842c0-.465.377-.842.841-.842v-.201c-.576 0-1.043.467-1.043 1.043h.202zm.841.842a.841.841 0 01-.841-.842h-.202c0 .576.467 1.043 1.043 1.043v-.201zm2.962 0H161.2v.201h2.962v-.201zm.842-.842a.842.842 0 01-.842.842v.201c.576 0 1.043-.467 1.043-1.043h-.201zm-.353 2.837l-2.094 2.094.142.143 2.094-2.094-.142-.143zm1.475 0a1.044 1.044 0 00-1.475 0l.142.143a.84.84 0 011.19 0l.143-.143zm0 1.475a1.044 1.044 0 000-1.475l-.143.143a.84.84 0 010 1.19l.143.142zm-2.094 2.094l2.094-2.094-.143-.142-2.094 2.094.143.142zm-.738.306c.267 0 .534-.102.738-.306l-.143-.142a.839.839 0 01-.595.247v.201zm-.737-.306c.203.204.47.306.737.306v-.201a.84.84 0 01-.595-.247l-.142.142zm0-1.475a1.042 1.042 0 000 1.475l.142-.142a.84.84 0 010-1.19l-.142-.143zm10.594-8.076c.267 0 .534-.102.738-.306l-.143-.142a.838.838 0 01-.595.246v.202zm-.738-.306c.204.204.471.306.738.306v-.202a.838.838 0 01-.595-.246l-.143.142zm0-1.475a1.044 1.044 0 000 1.475l.143-.142a.842.842 0 010-1.191l-.143-.142zm2.094-2.094l-2.094 2.094.143.142 2.094-2.094-.143-.142zm1.475 0a1.044 1.044 0 00-1.475 0l.143.142a.843.843 0 011.19 0l.142-.142zm0 1.475a1.042 1.042 0 000-1.475l-.142.142a.842.842 0 010 1.191l.142.142zm-2.093 2.094l2.093-2.094-.142-.142-2.094 2.094.143.142z" fill="#D9E7F7"/></g><path d="M84.856 149v-9.588h2.95c.843 0 1.596.191 2.258.573a3.944 3.944 0 011.561 1.62c.373.698.56 1.493.56 2.384v.441c0 .891-.185 1.684-.553 2.377a3.917 3.917 0 01-1.548 1.614c-.667.381-1.42.575-2.258.579h-2.97zm1.975-7.987v6.4h.955c.773 0 1.363-.252 1.772-.757.408-.505.616-1.227.625-2.167v-.507c0-.974-.202-1.712-.606-2.212-.404-.505-.994-.757-1.771-.757h-.975zm6.374 4.359c0-.707.136-1.337.409-1.89a2.996 2.996 0 011.172-1.284c.513-.303 1.108-.454 1.784-.454.962 0 1.745.294 2.351.882.61.588.95 1.387 1.02 2.397l.014.487c0 1.093-.305 1.971-.915 2.634-.61.658-1.43.988-2.457.988s-1.848-.33-2.462-.988c-.61-.659-.915-1.554-.915-2.687v-.085zm1.904.138c0 .676.127 1.194.381 1.554.255.356.62.533 1.094.533.46 0 .82-.175 1.08-.526.258-.356.388-.922.388-1.699 0-.663-.13-1.177-.389-1.541-.259-.364-.623-.547-1.093-.547-.465 0-.825.183-1.08.547-.254.36-.381.92-.381 1.679zm12.214.902l.935-4.537h1.838L108.278 149h-1.593l-1.35-4.484-1.35 4.484h-1.587l-1.818-7.125h1.838l.928 4.531 1.304-4.531h1.376l1.297 4.537zm5.472-4.537l.06.823c.509-.636 1.191-.954 2.047-.954.756 0 1.317.221 1.686.665.369.443.558 1.106.566 1.988V149h-1.903v-4.557c0-.404-.087-.695-.263-.875-.176-.185-.467-.277-.876-.277-.535 0-.937.228-1.205.685V149h-1.903v-7.125h1.791zm7.816 7.125h-1.909v-10.114h1.909V149zm1.278-3.628c0-.707.136-1.337.408-1.89a2.996 2.996 0 011.172-1.284c.514-.303 1.109-.454 1.785-.454.961 0 1.745.294 2.351.882.61.588.95 1.387 1.02 2.397l.013.487c0 1.093-.305 1.971-.915 2.634-.61.658-1.429.988-2.456.988s-1.848-.33-2.463-.988c-.61-.659-.915-1.554-.915-2.687v-.085zm1.903.138c0 .676.127 1.194.382 1.554.254.356.619.533 1.093.533.461 0 .821-.175 1.08-.526.259-.356.388-.922.388-1.699 0-.663-.129-1.177-.388-1.541-.259-.364-.623-.547-1.093-.547-.466 0-.826.183-1.08.547-.255.36-.382.92-.382 1.679zm10.147 3.49a2.118 2.118 0 01-.191-.639c-.461.514-1.06.771-1.797.771-.698 0-1.278-.202-1.739-.606a1.955 1.955 0 01-.685-1.528c0-.755.279-1.334.837-1.738.562-.404 1.371-.608 2.429-.613h.876v-.408c0-.329-.085-.592-.257-.79-.166-.198-.432-.296-.796-.296-.321 0-.573.077-.758.23-.18.154-.27.365-.27.632h-1.903c0-.412.128-.794.382-1.145.255-.352.615-.626 1.08-.824a3.9 3.9 0 011.567-.302c.878 0 1.574.221 2.088.665.518.439.777 1.058.777 1.857v3.088c.004.676.099 1.187.283 1.534V149h-1.923zm-1.574-1.324c.281 0 .54-.061.777-.184.237-.127.413-.296.527-.507v-1.225h-.711c-.953 0-1.46.33-1.521.988l-.007.112c0 .237.084.432.251.586.166.154.395.23.684.23zm4.379-2.291c0-1.111.248-1.995.744-2.654.501-.658 1.183-.987 2.048-.987.694 0 1.267.259 1.719.777v-3.635h1.91V149h-1.719l-.092-.757c-.474.592-1.085.889-1.831.889-.838 0-1.512-.33-2.021-.988-.505-.663-.758-1.583-.758-2.759zm1.903.138c0 .667.117 1.179.349 1.534.233.356.571.534 1.014.534.589 0 1.003-.248 1.245-.744v-2.812c-.237-.496-.648-.744-1.231-.744-.918 0-1.377.744-1.377 2.232z" fill="#fff"/><path d="M71.423 25.192a5.428 5.428 0 01-2.048-.4 5.347 5.347 0 01-1.728-1.136l1.088-1.264c.373.352.8.64 1.28.864.48.213.96.32 1.44.32.597 0 1.05-.123 1.36-.368.31-.245.464-.57.464-.976a1.08 1.08 0 00-.128-.544 1.044 1.044 0 00-.336-.384 2.338 2.338 0 00-.512-.32 9.357 9.357 0 00-.64-.288l-1.44-.624a5.294 5.294 0 01-.768-.4 3.436 3.436 0 01-.672-.576 2.804 2.804 0 01-.496-.784 2.785 2.785 0 01-.176-1.024c0-.416.085-.8.256-1.152.181-.363.427-.677.736-.944a3.38 3.38 0 011.104-.624c.437-.15.912-.224 1.424-.224.608 0 1.195.123 1.76.368a4.44 4.44 0 011.456.96l-.944 1.184a4.662 4.662 0 00-1.056-.656 2.98 2.98 0 00-1.216-.24c-.501 0-.901.112-1.2.336-.299.213-.448.512-.448.896 0 .203.043.379.128.528.096.139.219.267.368.384.16.107.341.208.544.304.203.085.41.17.624.256l1.424.592a4.9 4.9 0 01.848.448c.256.17.475.368.656.592.192.224.341.485.448.784.107.288.16.624.16 1.008 0 .427-.085.827-.256 1.2-.17.373-.421.704-.752.992-.32.277-.715.501-1.184.672-.459.16-.981.24-1.568.24zm7.407 0c-.694 0-1.254-.208-1.68-.624-.427-.427-.64-.987-.64-1.68 0-.416.085-.784.256-1.104.181-.33.458-.613.832-.848.384-.235.864-.432 1.44-.592a13.39 13.39 0 012.096-.368 2.504 2.504 0 00-.096-.576 1.136 1.136 0 00-.24-.496.973.973 0 00-.432-.336 1.574 1.574 0 00-.672-.128c-.384 0-.763.075-1.136.224-.363.15-.72.33-1.072.544l-.672-1.232a7.873 7.873 0 011.472-.72 5 5 0 011.76-.304c.981 0 1.712.293 2.192.88.49.576.736 1.413.736 2.512V25h-1.52l-.128-.864h-.064c-.352.299-.731.55-1.136.752a2.795 2.795 0 01-1.296.304zm.592-1.44c.32 0 .608-.075.864-.224.266-.15.549-.363.848-.64v-1.76c-.534.064-.982.15-1.344.256-.363.107-.656.23-.88.368-.224.128-.384.277-.48.448-.096.17-.144.352-.144.544 0 .352.106.608.32.768.213.16.485.24.816.24zM86.936 25L84.2 17.144h1.872l1.248 4.08c.106.384.213.773.32 1.168.117.395.229.795.336 1.2h.064c.117-.405.229-.805.336-1.2.106-.395.218-.784.336-1.168l1.248-4.08h1.776L89.064 25h-2.128zm9.428.192c-.544 0-1.05-.09-1.52-.272a3.71 3.71 0 01-1.232-.816 3.798 3.798 0 01-.832-1.28c-.192-.512-.288-1.093-.288-1.744 0-.64.101-1.216.304-1.728a4.04 4.04 0 01.8-1.296c.341-.352.73-.624 1.168-.816a3.313 3.313 0 011.344-.288c.533 0 1.002.09 1.408.272.405.181.741.437 1.008.768.277.33.485.725.624 1.184a5.177 5.177 0 01.176 2.016 2.64 2.64 0 01-.048.384h-4.992c.085.704.33 1.248.736 1.632.416.373.944.56 1.584.56.341 0 .656-.048.944-.144.299-.107.592-.25.88-.432l.624 1.152a5.65 5.65 0 01-1.248.608 4.34 4.34 0 01-1.44.24zm-2.096-4.864h3.488c0-.608-.133-1.083-.4-1.424-.256-.352-.656-.528-1.2-.528-.47 0-.88.165-1.232.496-.352.33-.57.816-.656 1.456zM101.273 25V14.536h6.32v1.568h-4.464v2.96h3.808v1.568h-3.808V25h-1.856zm7.684 0v-7.856h1.52l.128 1.392h.064c.277-.512.613-.901 1.008-1.168.395-.277.8-.416 1.216-.416.373 0 .672.053.896.16l-.32 1.6a3.38 3.38 0 00-.384-.096 2.464 2.464 0 00-.432-.032c-.309 0-.635.123-.976.368-.341.235-.635.65-.88 1.248V25h-1.84zm9.028.192c-.49 0-.96-.09-1.408-.272a3.587 3.587 0 01-1.2-.8 3.904 3.904 0 01-.816-1.296c-.202-.512-.304-1.093-.304-1.744 0-.65.102-1.232.304-1.744.203-.512.475-.944.816-1.296a3.587 3.587 0 011.2-.8 3.54 3.54 0 011.408-.288c.491 0 .96.096 1.408.288a3.38 3.38 0 011.2.8c.342.352.614.784.816 1.296.214.512.32 1.093.32 1.744 0 .65-.106 1.232-.32 1.744a3.873 3.873 0 01-.816 1.296 3.38 3.38 0 01-1.2.8 3.717 3.717 0 01-1.408.272zm0-1.504c.576 0 1.03-.235 1.36-.704.331-.48.496-1.115.496-1.904 0-.8-.165-1.435-.496-1.904-.33-.48-.784-.72-1.36-.72-.576 0-1.029.24-1.36.72-.32.47-.48 1.104-.48 1.904 0 .79.16 1.424.48 1.904.331.47.784.704 1.36.704zM123.551 25v-7.856h1.52l.128 1.072h.064c.33-.352.688-.65 1.072-.896a2.462 2.462 0 011.328-.368c.576 0 1.034.123 1.376.368.352.245.618.592.8 1.04a6.29 6.29 0 011.168-1.008c.405-.267.858-.4 1.36-.4.832 0 1.445.272 1.84.816.394.533.592 1.301.592 2.304V25h-1.856v-4.688c0-.65-.102-1.11-.304-1.376-.192-.267-.491-.4-.896-.4-.491 0-1.04.325-1.648.976V25h-1.84v-4.688c0-.65-.102-1.11-.304-1.376-.192-.267-.496-.4-.912-.4-.491 0-1.04.325-1.648.976V25h-1.84zm14.524.192c-.341 0-.629-.117-.864-.352-.224-.235-.336-.533-.336-.896s.112-.661.336-.896c.235-.235.523-.352.864-.352.341 0 .624.117.848.352.224.235.336.533.336.896s-.112.661-.336.896a1.123 1.123 0 01-.848.352zm3.366-.192v-7.856h1.52l.128 1.056h.064a6.372 6.372 0 011.136-.88c.416-.245.896-.368 1.44-.368.843 0 1.456.272 1.84.816.384.533.576 1.301.576 2.304V25h-1.84v-4.688c0-.65-.096-1.11-.288-1.376-.192-.267-.506-.4-.944-.4-.341 0-.645.085-.912.256-.256.16-.549.4-.88.72V25h-1.84zm12.313.192c-.544 0-1.05-.09-1.52-.272a3.713 3.713 0 01-1.232-.816 3.803 3.803 0 01-.832-1.28c-.192-.512-.288-1.093-.288-1.744 0-.64.102-1.216.304-1.728.203-.512.47-.944.8-1.296a3.681 3.681 0 011.168-.816 3.317 3.317 0 011.344-.288c.534 0 1.003.09 1.408.272.406.181.742.437 1.008.768.278.33.486.725.624 1.184a5.167 5.167 0 01.176 2.016c-.01.16-.026.288-.048.384h-4.992c.086.704.331 1.248.736 1.632.416.373.944.56 1.584.56.342 0 .656-.048.944-.144.299-.107.592-.25.88-.432l.624 1.152a5.637 5.637 0 01-1.248.608c-.458.16-.938.24-1.44.24zm-2.096-4.864h3.488c0-.608-.133-1.083-.4-1.424-.256-.352-.656-.528-1.2-.528-.469 0-.88.165-1.232.496-.352.33-.57.816-.656 1.456zm9.458 4.864c-.459 0-.848-.07-1.168-.208a2.074 2.074 0 01-.768-.576 2.691 2.691 0 01-.432-.896 4.925 4.925 0 01-.128-1.168V18.6h-1.12v-1.376l1.216-.08.224-2.144h1.536v2.144h2V18.6h-2v3.744c0 .917.368 1.376 1.104 1.376.138 0 .277-.016.416-.048a1.98 1.98 0 00.4-.128l.32 1.36a5.259 5.259 0 01-.736.192 3.7 3.7 0 01-.864.096z" fill="#D8DEE5"/><defs><filter id="filter0_dd" x="137.899" y="120.093" width="65.734" height="64.253" filterUnits="userSpaceOnUse" color-interpolation-filters="sRGB"><feFlood flood-opacity="0" result="BackgroundImageFix"/><feColorMatrix in="SourceAlpha" values="0 0 0 0 0 0 0 0 0 0 0 0 0 0 0 0 0 0 127 0"/><feOffset dx="-5.935" dy="-4.452"/><feGaussianBlur stdDeviation="8.161"/><feColorMatrix values="0 0 0 0 0 0 0 0 0 0.460526 0 0 0 0 1 0 0 0 0.17 0"/><feBlend in2="BackgroundImageFix" result="effect1_dropShadow"/><feColorMatrix in="SourceAlpha" values="0 0 0 0 0 0 0 0 0 0 0 0 0 0 0 0 0 0 127 0"/><feOffset dx="5.032" dy="5.032"/><feGaussianBlur stdDeviation="5.032"/><feColorMatrix values="0 0 0 0 0.383333 0 0 0 0 0.360972 0 0 0 0 0.360972 0 0 0 0.08 0"/><feBlend in2="effect1_dropShadow" result="effect2_dropShadow"/><feBlend in="SourceGraphic" in2="effect2_dropShadow" result="shape"/></filter></defs></svg>
