<svg version="1.2" xmlns="http://www.w3.org/2000/svg" viewBox="0 0 230 184" width="230" height="184"><style>.a{fill:#fff;stroke:#d8dee5;stroke-width:2}.b{fill:#d8dee5}.c{fill:#d7dde5}.d{fill:#fff}.e{fill:#79b5fc}.f{fill:#d9e7f7}.g{opacity:.2;fill:#b8c3d2}.h{fill:#f1f3f6}</style><rect class="a" x="1" y="1" width="228" height="182" rx="4"></rect><path fill-rule="evenodd" class="b" d="m212.5 76.5q0.6 0 1 0.2 0.5 0.2 0.9 0.6 0.4 0.3 0.6 0.8 0.2 0.5 0.2 1v17.7q0 0.5-0.2 1-0.2 0.5-0.6 0.9-0.4 0.3-0.9 0.5-0.4 0.2-1 0.2h-195.9q-0.5 0-1-0.2-0.5-0.2-0.8-0.5-0.4-0.4-0.6-0.9-0.2-0.5-0.2-1v-17.7q0-0.5 0.2-1 0.2-0.5 0.6-0.8 0.3-0.4 0.8-0.6 0.5-0.2 1-0.2c0 0 195.9 0 195.9 0zm0 2h-195.9q-0.1 0-0.2 0-0.1 0.1-0.2 0.1-0.1 0.1-0.2 0.3 0 0.1 0 0.2v17.7c0 0.4 0.3 0.7 0.6 0.7h195.9q0.2 0 0.3-0.1 0.1 0 0.2-0.1 0.1-0.1 0.2-0.2 0-0.2 0-0.3v-17.7q0-0.1 0-0.2-0.1-0.2-0.2-0.3-0.1 0-0.2-0.1-0.1 0-0.3 0z"/><path fill-rule="evenodd" class="c" d="m19.9 92v-9.8h2.1v2.4l-0.1 1.2q0.1-0.1 0.2-0.1 0.1-0.1 0.2-0.2 0.1-0.1 0.2-0.2 0.2 0 0.3-0.1 0.5-0.3 1.2-0.3 1.1 0 1.6 0.7 0.6 0.8 0.6 2.1v4.3h-2.1v-4q0-0.8-0.2-1.1-0.2-0.3-0.6-0.3-0.4 0-0.7 0.2-0.1 0.1-0.2 0.1-0.1 0.1-0.1 0.1-0.1 0.1-0.2 0.2-0.1 0-0.1 0.1v4.7zm10.6 0.2q-0.6 0-1.1-0.2-0.1-0.1-0.2-0.1-0.1-0.1-0.2-0.2-0.1 0-0.1-0.1-0.1-0.1-0.2-0.2-0.1-0.1-0.1-0.2-0.1-0.1-0.2-0.2 0-0.1-0.1-0.2 0-0.1 0-0.2-0.1-0.1-0.1-0.3 0-0.1 0-0.3 0-0.1 0-0.2-0.1-0.2-0.1-0.3v-2.8h-0.9v-1.6h1.1l0.2-1.9h1.7v1.9h1.7v1.6h-1.7v2.8q0 0.5 0.2 0.8 0.3 0.3 0.7 0.3 0.2 0 0.3-0.1 0.2 0 0.4-0.1l0.3 1.5q-0.1 0-0.2 0.1-0.1 0-0.1 0-0.1 0-0.2 0-0.1 0.1-0.2 0.1-0.1 0-0.2 0-0.1 0-0.2 0-0.1 0.1-0.2 0.1-0.1 0-0.3 0zm5.1 0q-0.6 0-1.1-0.2-0.1-0.1-0.2-0.1-0.1-0.1-0.2-0.2-0.1 0-0.2-0.1 0-0.1-0.1-0.2-0.1-0.1-0.2-0.2 0-0.1-0.1-0.2 0-0.1-0.1-0.2 0-0.1 0-0.2-0.1-0.1-0.1-0.3 0-0.1 0-0.3-0.1-0.1-0.1-0.2 0-0.2 0-0.3v-2.8h-0.9v-1.6h1l0.3-1.9h1.7v1.9h1.7v1.6h-1.7v2.8q0 0.5 0.2 0.8 0.3 0.3 0.7 0.3 0.2 0 0.3-0.1 0.2 0 0.3-0.1l0.4 1.5q-0.1 0-0.2 0.1-0.1 0-0.2 0 0 0-0.1 0-0.1 0.1-0.2 0.1-0.1 0-0.2 0-0.1 0-0.2 0-0.1 0.1-0.3 0.1-0.1 0-0.2 0zm2.7 2.4v-9.5h1.7l0.1 0.6h0.1q0.1 0 0.2-0.1 0.1-0.1 0.2-0.2 0.1-0.1 0.3-0.1 0.1-0.1 0.2-0.2 0.5-0.2 1.1-0.2 0.1 0 0.3 0 0.1 0 0.2 0 0.2 0.1 0.3 0.1 0.2 0.1 0.3 0.1 0.5 0.3 0.8 0.8 0.4 0.4 0.6 1.1 0.2 0.6 0.2 1.4 0 0.9-0.3 1.6-0.2 0.7-0.6 1.2-0.4 0.5-1 0.7-0.1 0.1-0.2 0.1-0.2 0.1-0.3 0.1-0.1 0-0.3 0.1-0.1 0-0.2 0-0.5 0-0.9-0.2-0.1-0.1-0.2-0.1-0.1-0.1-0.2-0.2-0.1 0-0.2-0.1-0.1-0.1-0.2-0.2l0.1 1.1v2.1zm3.1-4.1q0.6 0 0.9-0.5 0.4-0.5 0.4-1.6 0-1.8-1.2-1.8-0.6 0-1.2 0.6v2.8q0.3 0.3 0.6 0.4 0.3 0.1 0.5 0.1zm6.9 1.7q-0.2 0-0.4-0.1-0.2 0-0.3 0-0.2 0-0.4-0.1-0.2 0-0.3-0.1-0.2-0.1-0.4-0.1-0.1-0.1-0.3-0.2-0.2-0.1-0.3-0.2-0.1-0.1-0.3-0.2l0.9-1.3q0.5 0.4 0.9 0.6 0.5 0.1 0.9 0.1 0.5 0 0.7-0.1 0.1 0 0.1-0.1 0 0 0.1-0.1 0-0.1 0-0.1 0-0.1 0-0.1 0-0.1 0-0.1 0-0.1 0-0.1 0 0-0.1-0.1 0 0 0 0-0.1-0.1-0.1-0.1 0-0.1-0.1-0.1 0 0 0 0-0.1-0.1-0.1-0.1-0.2-0.1-0.5-0.2-0.2-0.1-0.5-0.2-0.1 0-0.2-0.1 0 0-0.1 0-0.1-0.1-0.2-0.1-0.1-0.1-0.1-0.1-0.1 0-0.2-0.1-0.1 0-0.2-0.1 0 0-0.1-0.1-0.1 0-0.1-0.1-0.1-0.1-0.2-0.1 0-0.1-0.1-0.2 0 0-0.1-0.1 0-0.1-0.1-0.2 0-0.1 0-0.2-0.1 0-0.1-0.1 0-0.1 0-0.2 0-0.1 0-0.2 0-0.5 0.1-0.9 0.2-0.4 0.6-0.7 0.3-0.3 0.8-0.4 0.5-0.2 1.1-0.2 0.8 0 1.4 0.3 0.6 0.2 1.1 0.6l-1 1.2q0-0.1-0.1-0.1-0.1-0.1-0.2-0.1-0.1-0.1-0.2-0.1-0.1-0.1-0.2-0.1-0.1-0.1-0.2-0.1-0.1 0-0.2 0 0-0.1-0.1-0.1-0.1 0-0.2 0-0.8 0-0.8 0.6 0 0.1 0.1 0.3 0.1 0.1 0.3 0.2 0.2 0.1 0.4 0.2 0.3 0 0.6 0.1 0.3 0.2 0.6 0.3 0.3 0.2 0.6 0.4 0.2 0.2 0.3 0.3 0.1 0.2 0.2 0.4 0.1 0.1 0.1 0.3 0 0.2 0 0.4 0 0.5-0.2 0.9-0.1 0.4-0.5 0.7-0.1 0.1-0.2 0.2-0.1 0-0.2 0.1-0.1 0.1-0.3 0.1-0.1 0.1-0.2 0.1-0.1 0-0.3 0.1-0.2 0-0.3 0-0.2 0.1-0.3 0.1-0.2 0-0.3 0zm5.3-4.6q-0.5 0-0.9-0.3-0.1-0.1-0.1-0.2-0.1-0.1-0.1-0.3-0.1-0.1-0.1-0.2 0-0.1 0-0.3 0-0.5 0.3-0.9 0.4-0.4 0.9-0.4 0.6 0 0.9 0.4 0.4 0.4 0.4 0.9 0 0.6-0.4 1-0.1 0.1-0.2 0.1-0.1 0.1-0.2 0.1-0.1 0.1-0.2 0.1-0.2 0-0.3 0zm0 4.6q-0.5 0-0.9-0.4-0.1-0.1-0.1-0.2-0.1-0.1-0.1-0.2-0.1-0.1-0.1-0.3 0-0.1 0-0.2 0-0.6 0.3-0.9 0.4-0.4 0.9-0.4 0.6 0 0.9 0.4 0.4 0.3 0.4 0.9 0 0.5-0.4 0.9-0.1 0.1-0.2 0.2-0.1 0-0.2 0.1-0.1 0-0.2 0-0.2 0.1-0.3 0.1zm2.3 2l2.8-12.1h1.4l-2.9 12.1c0 0-1.3 0-1.3 0zm4.7 0l2.9-12.1h1.3l-2.8 12.1zm6.6-2.2l-1.7-6.9h2l0.7 3.2q0.1 0.5 0.2 1 0 0.5 0.1 1h0.1q0.1-0.5 0.2-1 0-0.5 0.2-1l0.7-3.2h1.8l0.8 3.2q0.1 0.5 0.2 1 0.1 0.5 0.2 1h0.1q0.1-0.5 0.2-1 0-0.5 0.1-1l0.7-3.2h1.9l-1.7 6.9h-2.4l-0.6-2.8q0-0.1-0.1-0.2 0-0.1 0-0.3-0.1-0.1-0.1-0.2 0-0.1 0-0.3l-0.2-1h-0.1l-0.1 1q-0.1 0.2-0.1 0.3 0 0.1 0 0.2 0 0.2-0.1 0.3 0 0.1 0 0.2l-0.6 2.8zm10.8 0l-1.7-6.9h2.1l0.6 3.2q0.1 0.5 0.2 1 0.1 0.5 0.1 1h0.1q0.1-0.5 0.2-1 0.1-0.5 0.2-1l0.8-3.2h1.7l0.8 3.2q0.2 0.5 0.3 1 0.1 0.5 0.2 1 0.1-0.5 0.2-1 0-0.5 0.1-1l0.7-3.2h1.9l-1.7 6.9h-2.4l-0.6-2.8q0-0.1-0.1-0.2 0-0.1 0-0.3 0-0.1-0.1-0.2 0-0.1 0-0.3-0.1-0.4-0.2-1l-0.2 1q0 0.2-0.1 0.3 0 0.1 0 0.2 0 0.2 0 0.3-0.1 0.1-0.1 0.2l-0.6 2.8c0 0-2.4 0-2.4 0zm10.9 0l-1.7-6.9h2l0.7 3.2q0.1 0.5 0.1 1 0.1 0.5 0.2 1h0.1q0.1-0.5 0.1-1 0.1-0.5 0.3-1l0.7-3.2h1.8l0.8 3.2q0.1 0.5 0.2 1 0.1 0.5 0.2 1h0.1q0.1-0.5 0.1-1 0.1-0.5 0.2-1l0.7-3.2h1.9l-1.7 6.9h-2.4l-0.6-2.8q-0.1-0.1-0.1-0.2 0-0.1 0-0.3-0.1-0.1-0.1-0.2 0-0.1 0-0.3-0.1-0.4-0.2-1h-0.1l-0.1 1q-0.1 0.2-0.1 0.3 0 0.1 0 0.2 0 0.2-0.1 0.3 0 0.1 0 0.2l-0.6 2.8zm9.7 0.2q-0.5 0-0.9-0.4-0.1-0.1-0.1-0.2-0.1-0.1-0.2-0.2 0-0.1 0-0.3 0-0.1 0-0.2 0-0.6 0.3-0.9 0.4-0.4 0.9-0.4 0.5 0 0.9 0.4 0.3 0.3 0.3 0.9 0.1 0.5-0.3 0.9-0.1 0.1-0.2 0.2-0.1 0-0.2 0.1-0.1 0-0.3 0-0.1 0.1-0.2 0.1zm5.4 0q-0.7 0-1.2-0.3-0.2 0-0.3-0.1-0.1-0.1-0.2-0.2-0.1-0.1-0.2-0.2-0.1-0.1-0.2-0.2-0.1-0.1-0.2-0.3-0.1-0.1-0.2-0.2 0-0.2-0.1-0.3 0-0.2-0.1-0.3 0-0.2-0.1-0.4 0-0.2 0-0.4-0.1-0.2-0.1-0.4 0-0.2 0-0.4 0-0.8 0.2-1.5 0.1-0.2 0.2-0.3 0-0.2 0.1-0.3 0.1-0.1 0.2-0.3 0.1-0.1 0.2-0.2 0.4-0.5 0.9-0.8 0.1 0 0.3-0.1 0.1 0 0.2 0 0.2-0.1 0.3-0.1 0.2 0 0.3 0 0.6 0 1 0.2 0.3 0.2 0.7 0.5l-0.1-1v-2.4h2.1v9.8h-1.7l-0.1-0.7h-0.1q-0.1 0.1-0.2 0.2-0.1 0.1-0.2 0.2-0.1 0-0.2 0.1-0.1 0.1-0.3 0.1-0.1 0.1-0.2 0.1-0.1 0.1-0.2 0.1-0.2 0-0.3 0.1-0.1 0-0.2 0zm0.5-1.7q0.3 0 0.6-0.2 0.3-0.1 0.5-0.4v-2.9q0 0-0.1-0.1-0.1 0-0.2-0.1 0 0-0.1-0.1-0.1 0-0.2 0 0-0.1-0.1-0.1-0.1 0-0.1 0-0.1 0-0.2 0-0.1 0-0.1 0-0.5 0-0.9 0.4-0.4 0.5-0.4 1.5 0 1 0.3 1.5 0.4 0.5 1 0.5zm6.7 1.7q-0.4 0-0.8-0.2-0.1 0-0.2-0.1-0.1 0-0.2-0.1 0 0-0.1-0.1-0.1-0.1-0.2-0.1 0-0.1-0.1-0.2 0-0.1-0.1-0.2-0.1 0-0.1-0.1 0-0.1-0.1-0.2 0-0.1 0-0.2-0.1-0.1-0.1-0.2 0-0.1 0-0.2 0-0.1 0-0.2 0-1.1 0.9-1.7 0.9-0.7 3-0.9 0-0.4-0.3-0.7-0.2-0.3-0.8-0.3-0.1 0-0.2 0-0.2 0-0.3 0.1-0.1 0-0.2 0-0.1 0.1-0.2 0.1-0.1 0-0.2 0.1-0.2 0-0.3 0.1-0.1 0.1-0.2 0.1-0.1 0.1-0.2 0.2l-0.8-1.4q0.2-0.1 0.4-0.2 0.1-0.1 0.3-0.2 0.2-0.1 0.4-0.1 0.1-0.1 0.3-0.2 0.2 0 0.4-0.1 0.2 0 0.4-0.1 0.2 0 0.4 0 0.2 0 0.4 0 1.3 0 2 0.8 0.7 0.7 0.7 2.3v4h-1.6l-0.2-0.7q-0.1 0.1-0.3 0.2-0.1 0.1-0.2 0.1-0.1 0.1-0.2 0.2-0.1 0.1-0.3 0.1-0.1 0.1-0.2 0.1-0.2 0.1-0.3 0.1-0.1 0-0.3 0.1-0.1 0-0.3 0zm0.7-1.6q0.4 0 0.7-0.2 0 0 0.1-0.1 0.1 0 0.1-0.1 0.1 0 0.2-0.1 0-0.1 0.1-0.1v-1.2q-1.1 0.1-1.5 0.4-0.4 0.3-0.4 0.7 0 0.4 0.2 0.5 0.2 0.2 0.5 0.2zm5 1.4v-6.9h2v6.9zm1.1-8q-0.6 0-0.9-0.3-0.1 0-0.1-0.1-0.1-0.1-0.1-0.2-0.1-0.1-0.1-0.2 0-0.1 0-0.2 0-0.5 0.3-0.8 0.3-0.3 0.9-0.3 0.5 0 0.8 0.3 0.1 0.1 0.2 0.1 0 0.1 0.1 0.2 0 0.1 0 0.2 0.1 0.1 0.1 0.3 0 0.4-0.4 0.7-0.3 0.3-0.8 0.3zm4.7 8.2q-0.5 0-0.9-0.2-0.1 0-0.2-0.1 0 0-0.1-0.1-0.1-0.1-0.2-0.1 0-0.1-0.1-0.2 0 0-0.1-0.1 0-0.1-0.1-0.2 0-0.1 0-0.2-0.1-0.1-0.1-0.2 0-0.1 0-0.2-0.1-0.1-0.1-0.3 0-0.1 0-0.2 0-0.1 0-0.3v-7.6h2.1v7.7q0 0.4 0.1 0.5 0.1 0.1 0.2 0.1h0.1q0.1 0 0.2 0l0.2 1.5q0 0-0.1 0 0 0.1-0.1 0.1 0 0-0.1 0 0 0-0.1 0-0.1 0-0.1 0-0.1 0-0.2 0.1-0.1 0-0.1 0-0.1 0-0.2 0zm2.9 2.5q-0.1 0-0.2 0 0 0-0.1 0-0.1 0-0.1 0-0.1 0-0.2 0 0 0-0.1 0 0-0.1-0.1-0.1 0 0-0.1 0 0 0-0.1 0l0.4-1.6q0.1 0 0.2 0.1 0.1 0 0.2 0 0.6 0 0.8-0.3 0.3-0.2 0.4-0.6l0.1-0.4-2.6-6.7h2l1 2.9q0.2 0.5 0.3 1 0.1 0.5 0.3 1l0.3-1q0.1-0.5 0.2-1l0.9-2.9h1.9l-2.4 7q0 0.1-0.1 0.3-0.1 0.1-0.1 0.3-0.1 0.1-0.2 0.2 0 0.2-0.1 0.3-0.1 0.1-0.1 0.2-0.1 0.2-0.2 0.3-0.1 0.1-0.2 0.2 0 0.1-0.1 0.1-0.1 0.1-0.2 0.2-0.1 0.1-0.2 0.1-0.1 0.1-0.2 0.2-0.1 0-0.3 0-0.1 0.1-0.2 0.1-0.1 0.1-0.3 0.1-0.1 0-0.2 0-0.2 0-0.3 0zm6.5-2.7v-6.9h1.7l0.1 0.9h0.1q0.4-0.5 0.9-0.8 0.5-0.3 1.2-0.3 0.7 0 1.2 0.3 0.4 0.3 0.7 0.8 0.5-0.4 1-0.8 0.5-0.3 1.2-0.3 1.1 0 1.6 0.7 0.6 0.8 0.6 2.1v4.3h-2.1v-4q0-0.8-0.2-1.1-0.2-0.3-0.6-0.3-0.6 0-1.2 0.7v4.7h-2.1v-4q0-0.8-0.2-1.1-0.2-0.3-0.6-0.3-0.6 0-1.2 0.7v4.7zm15 0.2q-0.7 0-1.3-0.3-0.2 0-0.3-0.1-0.2-0.1-0.3-0.2-0.1-0.1-0.3-0.2-0.1-0.1-0.2-0.2-0.1-0.1-0.2-0.2-0.1-0.2-0.2-0.3-0.1-0.2-0.2-0.3-0.1-0.2-0.1-0.3-0.3-0.7-0.3-1.6 0-0.8 0.3-1.5 0-0.2 0.1-0.3 0.1-0.2 0.2-0.3 0.1-0.2 0.2-0.3 0.1-0.1 0.2-0.3 0.1-0.1 0.2-0.2 0.2-0.1 0.3-0.2 0.1-0.1 0.3-0.1 0.1-0.1 0.3-0.2 0.1 0 0.3-0.1 0.2 0 0.3 0 0.2-0.1 0.3-0.1 0.2 0 0.4 0 0.6 0 1.2 0.2 0.6 0.3 1.1 0.7 0.5 0.5 0.8 1.2 0.2 0.7 0.2 1.5 0 0.9-0.2 1.6-0.2 0.3-0.4 0.6-0.1 0.3-0.4 0.5-0.2 0.2-0.5 0.4-0.3 0.2-0.6 0.3-0.1 0.1-0.3 0.1-0.1 0.1-0.3 0.1-0.2 0-0.3 0.1-0.2 0-0.3 0zm0-1.7q0.6 0 0.9-0.5 0.3-0.6 0.3-1.5 0-0.9-0.3-1.4-0.3-0.5-0.9-0.5-0.7 0-1 0.5-0.3 0.5-0.3 1.4 0 0.9 0.3 1.5 0.3 0.5 1 0.5zm7 1.7q-0.6 0-1.1-0.2-0.1-0.1-0.2-0.1-0.1-0.1-0.2-0.2-0.1 0-0.1-0.1-0.1-0.1-0.2-0.2-0.1-0.1-0.1-0.2-0.1-0.1-0.2-0.2 0-0.1 0-0.2-0.1-0.1-0.1-0.2-0.1-0.1-0.1-0.3 0-0.1 0-0.3 0-0.1 0-0.2 0-0.2 0-0.3v-2.8h-1v-1.6h1.1l0.2-1.9h1.7v1.9h1.7v1.6h-1.7v2.8q0 0.5 0.3 0.8 0.2 0.3 0.6 0.3 0.2 0 0.3-0.1 0.2 0 0.4-0.1l0.3 1.5q-0.1 0-0.2 0.1-0.1 0-0.1 0-0.1 0-0.2 0-0.1 0.1-0.2 0.1-0.1 0-0.2 0-0.1 0-0.2 0-0.1 0.1-0.2 0.1-0.1 0-0.3 0zm2.7-0.2v-6.9h2.1v6.9zm1-8q-0.5 0-0.8-0.3-0.1 0-0.2-0.1-0.1-0.1-0.1-0.2 0-0.1-0.1-0.2 0-0.1 0-0.2 0-0.5 0.4-0.8 0.3-0.3 0.8-0.3 0.5 0 0.9 0.3 0.1 0.1 0.1 0.1 0.1 0.1 0.1 0.2 0.1 0.1 0.1 0.2 0 0.1 0 0.3 0 0.4-0.3 0.7-0.4 0.3-0.9 0.3zm5.8 8.2q-0.6 0-1.2-0.3-0.2 0-0.3-0.1-0.2-0.1-0.3-0.2-0.1-0.1-0.3-0.2-0.1-0.1-0.2-0.2-0.1-0.1-0.2-0.2-0.2-0.2-0.2-0.3-0.1-0.2-0.2-0.3-0.1-0.2-0.2-0.3-0.2-0.7-0.2-1.6 0-0.8 0.2-1.5 0.1-0.2 0.2-0.3 0.1-0.2 0.1-0.3 0.1-0.2 0.2-0.3 0.2-0.1 0.3-0.3 0.1-0.1 0.2-0.2 0.1-0.1 0.3-0.2 0.1-0.1 0.3-0.1 0.1-0.1 0.3-0.2 0.1 0 0.3-0.1 0.1 0 0.3 0 0.2-0.1 0.3-0.1 0.2 0 0.3 0 0.7 0 1.3 0.2 0.6 0.3 1.1 0.7 0.5 0.5 0.7 1.2 0.3 0.7 0.3 1.5 0 0.9-0.3 1.6-0.1 0.3-0.3 0.6-0.2 0.3-0.4 0.5-0.2 0.2-0.5 0.4-0.3 0.2-0.6 0.3-0.1 0.1-0.3 0.1-0.2 0.1-0.3 0.1-0.2 0-0.3 0.1-0.2 0-0.4 0zm0-1.7q0.7 0 1-0.5 0.3-0.6 0.3-1.5 0-0.9-0.3-1.4-0.3-0.5-1-0.5-0.6 0-0.9 0.5-0.3 0.5-0.3 1.4 0 0.9 0.3 1.5 0.3 0.5 0.9 0.5zm4.8 1.5v-6.9h1.7l0.1 0.8h0.1q0.5-0.4 1-0.7 0.5-0.3 1.2-0.3 1.2 0 1.7 0.7 0.5 0.8 0.5 2.1v4.3h-2.1v-4q0-0.8-0.2-1.1-0.2-0.3-0.6-0.3-0.4 0-0.7 0.2-0.1 0.1-0.2 0.1 0 0.1-0.1 0.1-0.1 0.1-0.2 0.2 0 0-0.1 0.1v4.7zm9.2 0.2q-0.1 0-0.3-0.1-0.1 0-0.2 0-0.1-0.1-0.2-0.1-0.1-0.1-0.2-0.2-0.1-0.1-0.2-0.2 0-0.1-0.1-0.2 0-0.1 0-0.3-0.1-0.1-0.1-0.2 0-0.6 0.4-0.9 0.4-0.4 0.9-0.4 0.5 0 0.9 0.4 0.3 0.3 0.3 0.9 0 0.5-0.3 0.9-0.1 0.1-0.2 0.2-0.1 0-0.2 0.1-0.1 0-0.3 0-0.1 0.1-0.2 0.1z"/><rect class="d" x="181" y="76" width="34" height="24" rx="2"></rect><rect class="e" x="181" y="76" width="34" height="24" rx="2"></rect><path fill-rule="evenodd" class="d" d="m202.3 87.3l-0.6 0.7-5.8 5.9-0.6 0.7-1.3-1.3 0.6-0.7 5.3-5.3-5.3-5.4-0.6-0.6 1.3-1.3 0.6 0.6 5.8 6z"/><path fill-rule="evenodd" class="d" d="m185 94.4v-2.9q0-0.4 0.2-0.7 0.3-0.2 0.7-0.3 0.4 0.1 0.7 0.3 0.2 0.3 0.2 0.7v2.9q0 0.2 0 0.4-0.1 0.2-0.2 0.3-0.2 0.1-0.3 0.2-0.2 0.1-0.4 0.1c-0.5 0-0.9-0.5-0.9-1zm-5.6-1.1q0.1-0.1 0.3-0.2 0.2-0.1 0.4-0.1 0.1 0 0.3 0.1 0.2 0.1 0.3 0.2l2.1 2.1q0.3 0.3 0.3 0.7 0 0.4-0.3 0.6-0.3 0.3-0.7 0.3-0.3 0-0.6-0.3l-2.1-2q-0.1-0.2-0.2-0.4-0.1-0.1-0.1-0.3 0-0.2 0.1-0.4 0.1-0.1 0.2-0.3zm19.5 15.4l5.6 5.7q0.1 0.1 0.2 0.3 0.1 0.1 0.1 0.3 0 0.2-0.1 0.4-0.1 0.2-0.2 0.3l-2.8 2.7q-0.1 0.2-0.3 0.2-0.1 0.1-0.3 0.1-0.2 0-0.4-0.1-0.2 0-0.3-0.2l-5.6-5.6-2.3 4q-0.1 0.2-0.4 0.4-0.2 0.1-0.5 0.1-0.3 0-0.5-0.2-0.2-0.2-0.3-0.4l-7.1-17.9q-0.1-0.2-0.1-0.5 0.1-0.3 0.3-0.5 0.2-0.2 0.5-0.2 0.2-0.1 0.5 0l17.9 7.1q0.2 0.1 0.4 0.4 0.1 0.2 0.1 0.4 0.1 0.3-0.1 0.6-0.1 0.2-0.3 0.3zm-17.5-8.5q-0.1 0.2-0.2 0.3-0.2 0.1-0.4 0.2-0.1 0.1-0.3 0.1h-3q-0.4 0-0.6-0.3-0.3-0.3-0.3-0.7 0-0.4 0.3-0.6 0.2-0.3 0.6-0.3h3q0.2 0 0.3 0.1 0.2 0 0.4 0.2 0.1 0.1 0.2 0.3 0 0.1 0 0.3 0 0.2 0 0.4zm-2.4 4.6l2-2.1q0.3-0.2 0.7-0.2 0.4 0 0.7 0.2 0.2 0.3 0.3 0.7-0.1 0.4-0.3 0.7l-2.1 2.1q-0.1 0.1-0.3 0.2-0.2 0-0.4 0-0.2 0-0.3 0-0.2-0.1-0.3-0.2-0.2-0.2-0.3-0.3 0-0.2 0-0.4 0-0.2 0-0.4 0.1-0.1 0.3-0.3zm11.1-8.5q-0.1 0.1-0.3 0.2-0.1 0.1-0.3 0.1-0.2 0-0.4-0.1-0.2-0.1-0.3-0.2-0.1-0.1-0.2-0.3-0.1-0.2-0.1-0.4 0-0.2 0.1-0.3 0.1-0.2 0.2-0.3l2.1-2.1q0.3-0.3 0.7-0.3 0.3 0 0.6 0.3 0.3 0.3 0.3 0.6 0 0.4-0.3 0.7z"/><path fill-rule="evenodd" class="f" d="m180.4 93.2q-0.2-0.1-0.3-0.1-0.2 0-0.4 0.1-0.1 0.1-0.2 0.2l-0.2-0.2q0.2-0.1 0.4-0.2 0.1-0.1 0.4-0.1 0.2 0 0.4 0.1 0.1 0.1 0.3 0.2l2.1 2.1q0.1 0.2 0.2 0.4 0.1 0.2 0.1 0.4 0 0.2-0.1 0.4-0.1 0.2-0.2 0.3l-0.2-0.1q0.2-0.1 0.2-0.3 0.1-0.2 0.1-0.3 0-0.2-0.1-0.3 0-0.2-0.2-0.3l-2.1-2.1q-0.1-0.1-0.2-0.2zm-0.9 0.2q-0.2 0.1-0.2 0.3-0.1 0.1-0.1 0.3 0 0.2 0.1 0.3 0 0.2 0.2 0.3l2.1 2.1q0 0 0.1 0.1 0 0 0.1 0.1 0.1 0 0.2 0 0.1 0 0.1 0 0.1 0 0.2 0 0.1 0 0.2 0 0-0.1 0.1-0.1 0.1-0.1 0.1-0.1l0.2 0.1c-0.2 0.2-0.5 0.3-0.8 0.3q-0.4 0-0.7-0.3l-2.1-2.1q-0.1-0.1-0.2-0.3-0.1-0.2-0.1-0.4 0-0.2 0.1-0.4 0.1-0.2 0.2-0.4zm19.3 15.4l0.1-0.1v0.1-0.1l4-2.3q0.1-0.1 0.2-0.1 0-0.1 0.1-0.2 0.1-0.1 0.1-0.3 0-0.1 0-0.2 0-0.1 0-0.2-0.1-0.1-0.2-0.2 0-0.1-0.1-0.2-0.1-0.1-0.2-0.1l-17.9-7.1q-0.1-0.1-0.2-0.1-0.1 0-0.2 0-0.2 0.1-0.3 0.1-0.1 0.1-0.2 0.2-0.1 0-0.1 0.2-0.1 0.1-0.1 0.2 0 0.1 0 0.2 0 0.2 0 0.3l7.2 17.8q0 0.1 0.1 0.2 0 0.1 0.1 0.2 0.1 0 0.2 0.1 0.2 0 0.3 0 0.1 0 0.2 0 0.1 0 0.2-0.1 0.1 0 0.2-0.1 0.1-0.1 0.2-0.2l2.3-4v-0.1l0.1 0.1v0.1l-0.1-0.1 0.1 0.1v-0.1l5.6 5.6q0.1 0.1 0.2 0.1 0 0.1 0.1 0.1 0.1 0 0.2 0 0.1 0.1 0.1 0.1 0.1 0 0.2-0.1 0.1 0 0.2 0 0 0 0.1-0.1 0.1 0 0.1-0.1l2.8-2.7q0.1-0.1 0.2-0.3 0-0.2 0-0.3 0-0.2 0-0.3-0.1-0.2-0.2-0.3zm4.2-2.2l-3.9 2.2 5.5 5.5q0.2 0.2 0.2 0.4 0.1 0.2 0.1 0.4 0 0.2-0.1 0.4 0 0.2-0.2 0.3l-2.7 2.7c-0.2 0.2-0.5 0.4-0.8 0.4q-0.4-0.1-0.7-0.4l-5.5-5.5-2.3 3.9c-0.2 0.4-0.5 0.6-0.9 0.5-0.4 0-0.8-0.2-0.9-0.6l-7.1-17.9q-0.1-0.1-0.1-0.3 0-0.1 0-0.3 0-0.1 0.1-0.2 0.1-0.2 0.2-0.3 0.1-0.1 0.2-0.2 0.2 0 0.3-0.1 0.2 0 0.3 0 0.2 0 0.3 0.1l17.8 7.1q0.2 0.1 0.3 0.1 0.1 0.1 0.2 0.3 0.1 0.1 0.1 0.2 0.1 0.2 0.1 0.3c0 0.4-0.2 0.8-0.5 1zm-23.9-1.6q-0.1 0.1-0.2 0.2-0.1 0.2-0.1 0.4 0 0.1 0.1 0.3 0.1 0.1 0.2 0.3 0 0 0.1 0.1 0.1 0 0.2 0 0 0.1 0.1 0.1 0.1 0 0.2 0 0.1 0 0.1 0 0.1 0 0.2-0.1 0.1 0 0.1 0 0.1-0.1 0.2-0.1l2.1-2.1q0.1-0.2 0.1-0.3 0.1-0.2 0.1-0.3 0-0.2-0.1-0.4 0-0.1-0.1-0.2-0.2-0.1-0.3-0.2-0.2-0.1-0.3-0.1-0.2 0-0.4 0.1-0.1 0.1-0.2 0.2zm1.3 1.3c-0.2 0.2-0.5 0.3-0.7 0.3q-0.4 0-0.8-0.3-0.1-0.1-0.2-0.3-0.1-0.2-0.1-0.4 0-0.2 0.1-0.4 0.1-0.2 0.2-0.4l2.1-2.1q0.2-0.1 0.4-0.2 0.2-0.1 0.4-0.1 0.2 0 0.4 0.1 0.2 0.1 0.3 0.2 0.1 0.2 0.2 0.4 0.1 0.2 0.1 0.4 0 0.2-0.1 0.4-0.1 0.2-0.2 0.3zm9.3-9.8q0.1 0 0.1 0 0.1 0 0.2-0.1 0.1 0 0.1-0.1l2.1-2.1q0.1-0.1 0.2-0.3 0.1-0.1 0.1-0.3 0-0.1-0.1-0.3-0.1-0.2-0.2-0.3-0.1-0.1-0.3-0.2-0.1 0-0.3 0-0.2 0-0.3 0-0.2 0.1-0.3 0.2l-2.1 2.1q-0.1 0.1-0.2 0.3 0 0.1 0 0.3 0 0.2 0 0.3 0.1 0.2 0.2 0.3 0.1 0.1 0.2 0.1 0 0.1 0.1 0.1 0.1 0 0.2 0 0 0.1 0.1 0.1 0.1 0 0.2-0.1zm-0.2 0.3q-0.4 0-0.7-0.3-0.2-0.2-0.2-0.4-0.1-0.2-0.1-0.4 0-0.2 0.1-0.4 0-0.2 0.2-0.3l2.1-2.1q0.1-0.2 0.3-0.2 0.2-0.1 0.4-0.1 0.2 0 0.4 0.1 0.2 0 0.4 0.2 0.1 0.1 0.2 0.3 0.1 0.2 0.1 0.4 0 0.2-0.1 0.4-0.1 0.2-0.2 0.4l-2.1 2.1c-0.2 0.2-0.5 0.3-0.8 0.3zm-3.2-1.5q0.1-0.1 0.2-0.2 0.2-0.1 0.2-0.3 0.1-0.1 0.1-0.3v-3c0-0.4-0.4-0.8-0.9-0.8-0.4 0-0.8 0.4-0.8 0.8v3q0 0.2 0.1 0.3 0 0.2 0.2 0.3 0.1 0.1 0.2 0.2 0.2 0 0.3 0 0.2 0 0.4 0zm-1.4-3.8c0-0.5 0.5-1 1-1 0.6 0 1.1 0.5 1.1 1v3c0 0.6-0.5 1-1.1 1-0.5 0-1-0.4-1-1zm-4.4 7.3c0.6 0 1.1 0.5 1.1 1.1 0 0.5-0.5 1-1.1 1h-2.9c-0.6 0-1.1-0.5-1.1-1 0-0.6 0.5-1.1 1.1-1.1h2.9zm0 0.2h-2.9c-0.5 0-0.9 0.4-0.9 0.9q0 0.1 0.1 0.3 0.1 0.1 0.2 0.3 0.1 0.1 0.2 0.1 0.2 0.1 0.4 0.1h2.9q0.2 0 0.4-0.1 0.1 0 0.2-0.1 0.1-0.2 0.2-0.3 0.1-0.2 0.1-0.3c0-0.5-0.4-0.9-0.9-0.9zm8.4-2.7l-0.1 0.1c0 0 0.1-0.1 0.1-0.1zm1.4 0.1l-0.1-0.1c0 0 0.1 0.1 0.1 0.1zm-10.9-1.7v0.1zm25.1 19.7h-0.1zm-13.7 2.4h-0.1zm12-11.9h-0.1zm-22.2-3.9v0.1zm0.2-7.5h0.1zm0.7 3.4l0.1-0.1zm-2.1-3.4l-0.1-0.1zm25.1 22.4h0.1zm-2.7 2.8l-0.1-0.1zm-1.3 0v-0.1zm-7.9-1.6h-0.1zm-0.9 0.5v-0.1zm-7.9-18.5h0.1zm0.2-1v-0.1zm1-0.2l-0.1 0.1zm18.5 7.9h-0.1zm-0.5 0.9l-0.1-0.1zm-21.8-3.7l-0.1-0.1zm1.4 0zm0 1.3l0.1 0.1zm-2.1 2.1v-0.1zm-1.4 0v0.1zm0-1.4h-0.1zm9.8-9.9l0.1 0.1zm2.1-2.1l-0.1-0.1zm1.4 0v-0.1zm0 1.4v-0.1z"/><path fill-rule="evenodd" class="b" d="m71.4 64.2q-0.2 0-0.5 0-0.3-0.1-0.5-0.1-0.3-0.1-0.5-0.1-0.3-0.1-0.5-0.2-0.3-0.1-0.5-0.2-0.2-0.1-0.4-0.3-0.3-0.1-0.5-0.3-0.2-0.2-0.4-0.3l1.1-1.3q0.6 0.5 1.3 0.9 0.7 0.3 1.5 0.3 0.9 0 1.3-0.4 0.5-0.4 0.5-1 0 0 0-0.1 0-0.1 0-0.1-0.1-0.1-0.1-0.2 0 0 0-0.1-0.1-0.1-0.1-0.1-0.1-0.1-0.1-0.1 0-0.1-0.1-0.1 0-0.1-0.1-0.1 0 0-0.1-0.1-0.1 0-0.1-0.1-0.1 0-0.2 0 0-0.1-0.1-0.1-0.1-0.1-0.2-0.1 0 0-0.1-0.1-0.1 0-0.2 0-0.1-0.1-0.1-0.1l-1.5-0.6q-0.1-0.1-0.2-0.1-0.1-0.1-0.2-0.1-0.1-0.1-0.2-0.1-0.1-0.1-0.1-0.1-0.1-0.1-0.2-0.2-0.1 0-0.2-0.1-0.1-0.1-0.2-0.1 0-0.1-0.1-0.2-0.1-0.1-0.2-0.2 0-0.1-0.1-0.2-0.1-0.1-0.1-0.2-0.1-0.1-0.1-0.2-0.1-0.1-0.1-0.2 0-0.2 0-0.3-0.1-0.1-0.1-0.3 0-0.1 0-0.2 0-0.6 0.3-1.2 0.2-0.5 0.7-0.9 0.5-0.4 1.1-0.6 0.2-0.1 0.4-0.1 0.1-0.1 0.3-0.1 0.2 0 0.4 0 0.1-0.1 0.3-0.1 0.9 0 1.8 0.4 0.8 0.4 1.4 1l-0.9 1.2q-0.1-0.1-0.2-0.2-0.2-0.1-0.3-0.2-0.1-0.1-0.3-0.2-0.1 0-0.3-0.1-0.1-0.1-0.2-0.1-0.2-0.1-0.3-0.1-0.2 0-0.4 0-0.1 0-0.3 0-0.7 0-1.2 0.3-0.4 0.3-0.4 0.9 0 0.3 0.1 0.5 0.2 0.2 0.4 0.4 0.2 0.2 0.5 0.3 0.3 0.1 0.6 0.3l1.5 0.6q0.4 0.1 0.8 0.4 0.4 0.3 0.7 0.6 0.3 0.3 0.4 0.8 0.2 0.4 0.2 1 0 0.6-0.3 1.2-0.2 0.5-0.7 1-0.5 0.4-1.2 0.7-0.7 0.2-1.6 0.2zm7.4 0q-1 0-1.7-0.6-0.6-0.7-0.6-1.7 0-0.6 0.3-1.1 0.2-0.5 0.8-0.9 0.6-0.3 1.4-0.6 0.3 0 0.6-0.1 0.2 0 0.5-0.1 0.2 0 0.5-0.1 0.3 0 0.5 0 0-0.1 0-0.2 0 0 0-0.1 0-0.1 0-0.2 0 0-0.1-0.1 0-0.1 0-0.1 0-0.1-0.1-0.2 0 0 0-0.1-0.1 0-0.1-0.1 0-0.1-0.1-0.1 0-0.1-0.1-0.1 0 0-0.1-0.1-0.1 0-0.1 0-0.1-0.1-0.2-0.1-0.1 0-0.2 0 0 0-0.1-0.1-0.1 0-0.2 0-0.6 0-1.1 0.3-0.6 0.2-1.1 0.5l-0.7-1.2q0.2-0.1 0.4-0.2 0.1-0.1 0.3-0.2 0.2-0.1 0.4-0.2 0.2-0.1 0.4-0.1 0.2-0.1 0.4-0.2 0.2 0 0.5-0.1 0.2 0 0.4 0 0.2 0 0.4 0 1.5 0 2.2 0.8 0.8 0.9 0.8 2.5v4.7h-1.5l-0.2-0.9q-0.6 0.5-1.2 0.8-0.1 0.1-0.3 0.1-0.1 0.1-0.3 0.1-0.2 0.1-0.3 0.1-0.2 0-0.4 0zm0.6-1.4q0.5 0 0.9-0.3 0.4-0.2 0.8-0.6v-1.8q-0.8 0.1-1.3 0.3-0.6 0.1-0.9 0.4-0.3 0.1-0.5 0.4-0.1 0.3-0.1 0.5 0 0.6 0.3 0.8 0.3 0.3 0.8 0.3zm7.5 1.2l-2.7-7.9h1.9l1.2 4.1q0.2 0.6 0.3 1.2 0.2 0.6 0.4 1.2 0.2-0.6 0.4-1.2 0.1-0.6 0.3-1.2l1.3-4.1h1.7l-2.6 7.9zm9.4 0.2q-0.8 0-1.5-0.3-0.2 0-0.4-0.1-0.1-0.1-0.3-0.2-0.1-0.1-0.3-0.2-0.1-0.2-0.3-0.3-0.1-0.1-0.2-0.3-0.1-0.1-0.2-0.3-0.1-0.2-0.2-0.3-0.1-0.2-0.2-0.4-0.3-0.7-0.3-1.7 0-1 0.3-1.7 0.1-0.2 0.2-0.4 0.1-0.2 0.2-0.3 0.1-0.2 0.2-0.3 0.1-0.2 0.2-0.3 0.5-0.6 1.2-0.9 0.2 0 0.3-0.1 0.2 0 0.3-0.1 0.2 0 0.4 0 0.2 0 0.3 0 0.8 0 1.4 0.2 0.7 0.3 1.1 0.8 0.4 0.5 0.6 1.2 0 0.2 0.1 0.5 0 0.2 0.1 0.5 0 0.2 0 0.5 0 0.2 0 0.5-0.1 0-0.1 0.1 0 0 0 0.1 0 0 0 0.1 0 0 0 0.1h-5q0.1 1 0.7 1.6 0.7 0.6 1.6 0.6 0.5 0 1-0.2 0.4-0.1 0.9-0.4l0.6 1.1q-0.2 0.1-0.3 0.2-0.2 0.1-0.3 0.2-0.2 0.1-0.3 0.1-0.2 0.1-0.4 0.2-0.1 0-0.3 0.1-0.2 0-0.4 0-0.2 0.1-0.3 0.1-0.2 0-0.4 0zm-2.1-4.9h3.5q0-0.9-0.4-1.4-0.4-0.5-1.2-0.5-0.7 0-1.2 0.5-0.6 0.5-0.7 1.4zm7 4.7v-10.5h6.3v1.6h-4.4v3h3.8v1.5h-3.8v4.4zm7.6 0v-7.9h1.6l0.1 1.4h0.1q0.4-0.7 1-1.1 0.6-0.4 1.2-0.4 0.5 0 0.9 0.1l-0.3 1.6q-0.1 0-0.1 0-0.1 0-0.1 0-0.1-0.1-0.1-0.1-0.1 0-0.1 0-0.1 0-0.1 0-0.1 0-0.1 0-0.1 0-0.2 0 0 0-0.1 0-0.4 0-0.9 0.4-0.6 0.3-0.9 1.2v4.8zm9 0.2q-0.7 0-1.4-0.3-0.2 0-0.3-0.1-0.2-0.1-0.3-0.2-0.2-0.1-0.3-0.2-0.2-0.2-0.3-0.3-0.1-0.1-0.3-0.3-0.1-0.1-0.2-0.3-0.1-0.2-0.2-0.3 0-0.2-0.1-0.4-0.3-0.7-0.3-1.7 0-1 0.3-1.8 0.3-0.7 0.8-1.3 0.1-0.1 0.3-0.2 0.1-0.1 0.3-0.2 0.1-0.1 0.3-0.2 0.1-0.1 0.3-0.2 0.2 0 0.3-0.1 0.2 0 0.4-0.1 0.2 0 0.3 0 0.2 0 0.4 0 0.7 0 1.4 0.2 0.2 0.1 0.3 0.2 0.2 0.1 0.4 0.2 0.1 0.1 0.3 0.2 0.1 0.1 0.2 0.2 0.5 0.6 0.8 1.3 0.4 0.8 0.4 1.8 0 1-0.4 1.7 0 0.2-0.1 0.4-0.1 0.1-0.2 0.3-0.1 0.2-0.2 0.3-0.2 0.2-0.3 0.3-0.1 0.2-0.2 0.3-0.2 0.1-0.3 0.2-0.2 0.1-0.4 0.2-0.1 0.1-0.3 0.1-0.2 0.1-0.3 0.1-0.2 0.1-0.4 0.1-0.2 0.1-0.3 0.1-0.2 0-0.4 0zm0-1.5q0.9 0 1.4-0.7 0.5-0.7 0.5-1.9 0-1.2-0.5-1.9-0.5-0.7-1.4-0.7-0.9 0-1.4 0.7-0.4 0.7-0.4 1.9 0 1.2 0.4 1.9 0.5 0.7 1.4 0.7zm5.6 1.3v-7.9h1.5l0.1 1.1h0.1q0.5-0.5 1.1-0.9 0.1-0.1 0.3-0.1 0.1-0.1 0.3-0.2 0.2 0 0.3 0 0.2-0.1 0.4 0 0.9 0 1.4 0.3 0.5 0.4 0.8 1.1 0.1-0.2 0.2-0.3 0.2-0.2 0.3-0.3 0.2-0.1 0.3-0.2 0.2-0.1 0.3-0.2 0.6-0.4 1.4-0.4 1.2 0 1.8 0.8 0.6 0.8 0.6 2.3v4.9h-1.8v-4.7q0-1-0.3-1.4-0.3-0.4-0.9-0.4-0.8 0-1.7 1v5.5h-1.8v-4.7q0-1-0.3-1.4-0.3-0.4-0.9-0.4-0.8 0-1.7 1v5.5zm14.5 0.2q-0.5 0-0.8-0.4-0.4-0.3-0.4-0.9 0-0.5 0.4-0.9 0.3-0.3 0.8-0.3 0.6 0 0.9 0.3 0.3 0.4 0.3 0.9 0 0.6-0.3 0.9-0.1 0.1-0.2 0.2-0.1 0.1-0.2 0.1-0.1 0.1-0.2 0.1-0.1 0-0.3 0zm3.4-0.2v-7.9h1.5l0.2 1.1q0.1-0.1 0.3-0.2 0.1-0.2 0.3-0.3 0.1-0.1 0.3-0.2 0.1-0.1 0.3-0.2 0.6-0.3 1.4-0.3 1.3 0 1.8 0.8 0.6 0.8 0.6 2.3v4.9h-1.8v-4.7q0-1-0.3-1.4-0.3-0.4-1-0.4-0.5 0-0.9 0.3-0.4 0.2-0.9 0.7v5.5zm12.4 0.2q-0.9 0-1.6-0.3-0.1 0-0.3-0.1-0.2-0.1-0.3-0.2-0.2-0.1-0.3-0.2-0.2-0.2-0.3-0.3-0.1-0.1-0.2-0.3-0.2-0.1-0.3-0.3-0.1-0.2-0.2-0.3-0.1-0.2-0.1-0.4-0.3-0.7-0.3-1.7 0-1 0.3-1.7 0.3-0.8 0.8-1.3 0.1-0.2 0.3-0.3 0.1-0.1 0.2-0.2 0.2-0.1 0.3-0.2 0.2-0.1 0.4-0.2 0.1 0 0.3-0.1 0.1 0 0.3-0.1 0.2 0 0.4 0 0.1 0 0.3 0 0.8 0 1.4 0.2 0.6 0.3 1 0.8 0.4 0.5 0.6 1.2 0.1 0.2 0.2 0.5 0 0.2 0 0.5 0.1 0.2 0 0.5 0 0.2 0 0.5 0 0.2 0 0.4h-5q0.1 1 0.7 1.6 0.6 0.6 1.6 0.6 0.5 0 0.9-0.2 0.5-0.1 0.9-0.4l0.6 1.1q-0.1 0.1-0.3 0.2-0.1 0.1-0.3 0.2-0.1 0.1-0.3 0.1-0.1 0.1-0.3 0.2-0.7 0.2-1.4 0.2zm-2.1-4.9h3.4q0.1-0.9-0.4-1.4-0.3-0.5-1.2-0.5-0.7 0-1.2 0.5-0.5 0.5-0.6 1.4zm9.4 4.9q-0.7 0-1.1-0.2-0.2-0.1-0.3-0.1-0.1-0.1-0.2-0.2-0.1 0-0.2-0.1 0-0.1-0.1-0.2-0.1-0.1-0.2-0.2 0-0.1-0.1-0.2 0-0.1-0.1-0.2 0-0.2 0-0.3-0.1-0.1-0.1-0.3 0-0.1 0-0.3-0.1-0.1-0.1-0.3 0-0.1 0-0.3v-3.7h-1.1v-1.4l1.2-0.1 0.2-2.1h1.6v2.1h2v1.5h-2v3.7q0 1.4 1.1 1.4 0.2 0 0.4 0 0.1 0 0.1-0.1 0.1 0 0.1 0 0.1 0 0.1 0 0.1 0 0.1-0.1l0.3 1.4q-0.1 0-0.2 0.1-0.1 0-0.1 0-0.1 0-0.2 0.1-0.1 0-0.2 0-0.1 0-0.2 0-0.1 0.1-0.2 0.1-0.2 0-0.3 0-0.1 0-0.2 0z"/><rect class="g" x="121" y="11" width="95" height="8" rx="4"></rect><rect class="h" x="14" y="148" width="50" height="34" rx="2"></rect><rect class="g" x="14" y="10" width="50" height="10" rx="2"></rect><rect class="h" x="90" y="148" width="50" height="34" rx="2"></rect><rect class="h" x="166" y="150" width="50" height="34" rx="2"></rect></svg>