<svg id="SvgjsSvg1001" width="288" height="288" xmlns="http://www.w3.org/2000/svg" version="1.1" xmlns:xlink="http://www.w3.org/1999/xlink" xmlns:svgjs="http://svgjs.com/svgjs"><defs id="SvgjsDefs1002"></defs><g id="SvgjsG1008"><svg xmlns="http://www.w3.org/2000/svg" data-name="Layer 1" viewBox="0 0 512 512" width="288" height="288"><path fill="#ff7700" d="M154,406.65693a30.05394,30.05394,0,0,0-29.05066,22.5H52.5a7.5,7.5,0,0,0,0,15h72.44934a30.00424,30.00424,0,0,0,58.10132,0H459.5a7.5,7.5,0,0,0,0-15H183.05066A30.05394,30.05394,0,0,0,154,406.65693Zm0,45a15,15,0,1,1,15-15A15.017,15.017,0,0,1,154,451.65693ZM114.627,46.58406a7.5,7.5,0,1,0,7.5,7.5A7.49994,7.49994,0,0,0,114.627,46.58406ZM474.5-.34307H37.5a37.54227,37.54227,0,0,0-37.5,37.5v437a37.54226,37.54226,0,0,0,37.5,37.5h437a37.54226,37.54226,0,0,0,37.5-37.5v-437A37.54227,37.54227,0,0,0,474.5-.34307Zm22.5,474.5a22.52523,22.52523,0,0,1-22.5,22.5H37.5a22.52523,22.52523,0,0,1-22.5-22.5v-369.5H221.15186V258.819l-28.82569-28.82617a34.848,34.848,0,1,0-49.28271,49.28223l88.31494,88.31543.00244.00244c.80078.80127,1.666,1.583,2.55127,2.30859.09912.082.20019.16113.24707.1958q1.2356.99537,2.5542,1.87647l.34277.21972c.85645.55567,1.72608,1.06934,2.57813,1.52295l.394.20313q1.35058.698,2.75293,1.27588l.30469.1206c.96338.38428,1.939.72559,2.90771,1.01563l.24756.07129c1.02149.29687,2.0459.54638,3.02441.73779l.21631.03955c1.06348.20166,2.11914.35352,3.14161.45215l.17236.01416c1.11621.10156,2.16406.15088,3.2041.15088,1.0127,0,2.0332-.04688,3.14941-.146.07129-.00537.1753-.01416.231-.01953,1.01856-.09814,2.07422-.25,3.0752-.43994.0581-.01026.20214-.03613.25976-.04736.99756-.19532,2.022-.44483,3.05908-.7461l.23926-.06885c.96143-.28808,1.937-.62939,2.95069-1.03369l.28222-.1123c.90772-.37354,1.82471-.79883,2.78418-1.29395l.32813-.16943c.85888-.45752,1.72851-.97119,2.626-1.55274l.32666-.21093c.8545-.57032,1.70557-1.1958,2.47461-1.81592.10157-.07813.20264-.15723.28223-.22315.90478-.74169,1.77-1.52343,2.5708-2.3247l.00244-.00244,88.31494-88.31543a34.84578,34.84578,0,0,0,.00049-49.28174l-.00049-.001a34.84636,34.84636,0,0,0-49.28222.00049L290.84814,258.819V104.65693H497ZM280.478,283.85469a7.49753,7.49753,0,0,0,8.17334-1.626l41.62988-41.62939a19.84593,19.84593,0,0,1,28.06836-.00049l.00049.001a19.846,19.846,0,0,1,0,28.06885l-88.29932,88.29981-.03125.03076q-.646.64526-1.41162,1.27783c-.05518.043-.14111.11035-.17627.13867-.47656.38379-.96289.7417-1.44873,1.06445l-.20605.13135c-.49463.32129-.9878.61328-1.51416.89209l-.17872.09082q-.77563.40063-1.56152.72364l-.17187.06738c-.55176.2207-1.1045.41406-1.62647.57031-.023.00635-.13183.0376-.15478.04395q-.85327.24828-1.68457.41406c-.05274.00928-.12745.02295-.16065.0293-.605.11474-1.16943.19726-1.7207.25244-.05615.0039-.123.00976-.15869.01269a19.11674,19.11674,0,0,1-3.6543.00342l-.16211-.01318c-.564-.05518-1.1377-.13916-1.75879-.25684l-.10791-.01855c-.55762-.10889-1.13965-.25147-1.73-.42286-.02344-.00683-.11621-.03271-.13965-.03955-.53808-.16113-1.09082-.35449-1.64551-.57617l-.185-.07178c-.50831-.20947-1.02832-.45117-1.54639-.71875l-.2251-.11425c-.479-.25489-.97217-.54688-1.47217-.8711l-.20312-.12842q-.7251-.48413-1.46-1.07519c-.0249-.02051-.104-.082-.15918-.125-.50293-.41455-.97852-.84473-1.415-1.28076l-.03125-.03076L153.6499,268.66865a19.848,19.848,0,1,1,28.06934-28.06933l41.62939,41.62939a7.49986,7.49986,0,0,0,12.80323-5.30322V78.87764a19.84814,19.84814,0,1,1,39.69628,0V276.92549A7.49994,7.49994,0,0,0,280.478,283.85469ZM497,89.65693H290.84814V78.87764a34.84814,34.84814,0,1,0-69.69628,0V89.65693H15v-52.5a22.52523,22.52523,0,0,1,22.5-22.5h437a22.52523,22.52523,0,0,1,22.5,22.5ZM54.627,46.58406a7.5,7.5,0,1,0,7.5,7.5A7.49994,7.49994,0,0,0,54.627,46.58406Zm30,0a7.5,7.5,0,1,0,7.5,7.5A7.49994,7.49994,0,0,0,84.627,46.58406Z" class="color272a33 svgShape"></path></svg></g></svg>