<svg xmlns="http://www.w3.org/2000/svg" version="1.1" xmlns:xlink="http://www.w3.org/1999/xlink" xmlns:svgjs="http://svgjs.com/svgjs" width="1440" height="250" preserveAspectRatio="none" viewBox="0 0 1440 250"><g mask="url(&quot;#SvgjsMask1094&quot;)" fill="none"><rect width="1440" height="250" x="0" y="0" fill="rgba(255, 110, 0, 1)"></rect><path d="M48 250L298 0L637 0L387 250z" fill="url(#SvgjsLinearGradient1095)"></path><path d="M260.6 250L510.6 0L743.1 0L493.1 250z" fill="url(#SvgjsLinearGradient1095)"></path><path d="M503.20000000000005 250L753.2 0L957.2 0L707.2 250z" fill="url(#SvgjsLinearGradient1095)"></path><path d="M715.8000000000001 250L965.8000000000001 0L1282.3000000000002 0L1032.3000000000002 250z" fill="url(#SvgjsLinearGradient1095)"></path><path d="M1394 250L1144 0L919 0L1169 250z" fill="url(#SvgjsLinearGradient1096)"></path><path d="M1165.4 250L915.4000000000001 0L670.9000000000001 0L920.9000000000001 250z" fill="url(#SvgjsLinearGradient1096)"></path><path d="M927.8 250L677.8 0L475.29999999999995 0L725.3 250z" fill="url(#SvgjsLinearGradient1096)"></path><path d="M697.1999999999999 250L447.19999999999993 0L276.19999999999993 0L526.1999999999999 250z" fill="url(#SvgjsLinearGradient1096)"></path><path d="M1245.820010614212 250L1440 55.820010614211895L1440 250z" fill="url(#SvgjsLinearGradient1095)"></path><path d="M0 250L194.1799893857881 250L 0 55.820010614211895z" fill="url(#SvgjsLinearGradient1096)"></path></g><defs><mask id="SvgjsMask1094"><rect width="1440" height="250" fill="#ffffff"></rect></mask><linearGradient x1="0%" y1="100%" x2="100%" y2="0%" id="SvgjsLinearGradient1095"><stop stop-color="rgba(185, 15, 101, 0.2)" offset="0"></stop><stop stop-opacity="0" stop-color="rgba(185, 15, 101, 0.2)" offset="0.66"></stop></linearGradient><linearGradient x1="100%" y1="100%" x2="0%" y2="0%" id="SvgjsLinearGradient1096"><stop stop-color="rgba(185, 15, 101, 0.2)" offset="0"></stop><stop stop-opacity="0" stop-color="rgba(185, 15, 101, 0.2)" offset="0.66"></stop></linearGradient></defs></svg>